<?xml version="1.0" encoding="UTF-8" standalone="no"?>
<svg
   xmlns:dc="http://purl.org/dc/elements/1.1/"
   xmlns:cc="http://creativecommons.org/ns#"
   xmlns:rdf="http://www.w3.org/1999/02/22-rdf-syntax-ns#"
   xmlns:svg="http://www.w3.org/2000/svg"
   xmlns="http://www.w3.org/2000/svg"
   id="svg268"
   version="1.1"
   viewBox="0 0 115.81269 45.007881"
   height="45.007881mm"
   width="115.81269mm">
  <defs
     id="defs262" />
  <metadata
     id="metadata265">
    <rdf:RDF>
      <cc:Work
         rdf:about="">
        <dc:format>image/svg+xml</dc:format>
        <dc:type
           rdf:resource="http://purl.org/dc/dcmitype/StillImage" />
        <dc:title></dc:title>
      </cc:Work>
    </rdf:RDF>
  </metadata>
  <g
     transform="translate(-32.80794,-129.3532)"
     id="layer1">
    <polygon
       id="polygon80"
       points="103.43,47.29 103.43,25.39 84.46,14.42 65.48,25.39 65.48,47.29 84.46,58.25 "
       style="overflow:visible;fill:#fefbf8"
       transform="matrix(0.36627506,0,0,0.36627506,32.276841,129.16274)" />
    <path
       id="path82"
       d="m 32.80794,135.32715 0.0037,11.94423 10.343608,5.97395 10.343608,-5.97395 v -11.94789 l -10.34727,-5.97029 z m 2.780028,1.60428 7.563581,-4.36966 7.56358,4.366 0.0037,8.73566 -7.567243,4.366 -7.563581,-4.36234 z"
       style="overflow:visible;fill:#fefbf8;stroke-width:0.36627507" />
    <polygon
       id="polygon84"
       points="12.68,66.08 28.66,75.3 63.23,55.35 63.23,55.16 80.18,64.94 80.19,103.92 46.43,123.4 12.68,103.92 "
       style="overflow:visible;fill:#94b17b"
       transform="matrix(0.36627506,0,0,0.36627506,32.276841,129.16274)" />
    <path
       id="path95"
       d="m 85.382101,146.6553 v 0 q 0,3.79755 -2.415492,5.12358 v 0 l 2.732992,3.13765 h -3.760198 l -1.973479,-2.48397 -0.0062,-0.006 v -0.006 l -0.0062,-0.006 q -2.633383,0 -4.034118,-1.47544 -1.400736,-1.47544 -1.400736,-4.29559 v 0 q 0,-2.78902 1.39451,-4.26446 1.39451,-1.46922 4.052795,-1.46922 v 0 q 2.66451,0 4.040343,1.45677 1.375834,1.46299 1.375834,4.28936 z m -7.688482,0 v 0 q 0,3.24349 2.259854,3.24349 v 0 q 1.145489,0 1.699559,-0.79064 0.554069,-0.78441 0.554069,-2.45285 v 0 q 0,-1.67465 -0.566521,-2.47151 -0.560295,-0.79687 -1.674656,-0.79687 v 0 q -2.272305,0 -2.272305,3.26838 z m 16.186274,-5.57181 h 3.019364 v 6.72976 q 0,2.19137 -1.238871,3.39289 -1.245101,1.20774 -3.57966,1.20774 v 0 q -2.284753,0 -3.511176,-1.17039 -1.226421,-1.17039 -1.226421,-3.36176 v 0 -6.79824 h 3.031813 v 6.56167 q 0,1.18284 0.44201,1.71823 0.44201,0.5354 1.307354,0.5354 v 0 q 0.927597,0 1.344705,-0.5354 0.410882,-0.52916 0.410882,-1.73691 v 0 z m 15.526377,11.17476 h -3.30574 l -0.54784,-2.09177 h -3.62946 l -0.56652,2.09177 h -3.318189 l 3.648139,-11.21834 h 4.02789 z m -6.85427,-4.56951 h 2.37191 l -0.47936,-1.83652 q -0.16809,-0.6101 -0.41088,-1.58128 -0.23657,-0.97117 -0.3175,-1.38828 v 0 q -0.0685,0.38598 -0.2677,1.28245 -0.20544,0.89647 -0.89647,3.52363 z m 11.84089,0.50426 h -0.75951 v 4.06525 h -3.01937 v -11.17476 h 3.66059 q 4.55083,0 4.55083,3.30574 v 0 q 0,1.93612 -1.89254,3.00068 v 0 l 3.25593,4.86834 h -3.42402 z m -0.75951,-4.82475 v 2.55245 h 0.56029 q 1.5875,0 1.5875,-1.39451 v 0 q 0,-1.15794 -1.55637,-1.15794 v 0 z m 12.50078,0.18676 v 8.70324 h -3.01936 v -8.70324 h -2.72677 v -2.47152 h 8.46667 v 2.47152 z m 10.95064,6.24417 v 2.45907 h -6.63015 v -11.17476 h 6.63015 v 2.42172 h -3.61079 v 1.76181 h 3.34309 v 2.42172 h -3.34309 v 2.11044 z m 5.7399,-1.60618 h -0.76574 v 4.06525 h -3.01936 v -11.17476 h 3.66681 q 4.55084,0 4.55084,3.30574 v 0 q 0,1.93612 -1.89255,3.00068 v 0 l 3.25593,4.86834 h -3.42402 z m -0.76574,-4.82475 v 2.55245 h 0.56652 q 1.58128,0 1.58128,-1.39451 v 0 q 0,-1.15794 -1.55015,-1.15794 v 0 z"
       style="fill:#fefbf8;fill-opacity:1;stroke-width:0.62254906" />
    <path
       id="path99"
       d="m 83.629805,170.12466 h -3.382182 l -2.691942,-9.47513 h -0.08157 q 0.188249,2.42212 0.188249,3.75868 v 0 5.71645 h -3.143741 v -13.15223 h 4.73129 l 2.742141,9.33708 h 0.0753 l 2.685666,-9.33708 h 4.743842 v 13.15223 h -3.269234 v -5.76665 q 0,-0.4518 0.01881,-0.99771 0.01254,-0.5522 0.119221,-2.69195 v 0 h -0.08157 z m 20.657035,0 h -3.88417 l -0.64632,-2.46604 h -4.279495 l -0.665142,2.46604 h -3.903001 l 4.292045,-13.20871 h 4.743841 z m -8.069546,-5.37761 h 2.798614 l -0.564742,-2.16484 q -0.200798,-0.71535 -0.483169,-1.85738 -0.282372,-1.14204 -0.376494,-1.63776 v 0 q -0.0753,0.45807 -0.313746,1.51226 -0.238448,1.04791 -1.060463,4.14772 z m 18.096866,1.38049 v 0 q 0,1.2236 -0.62121,2.17739 -0.62122,0.94751 -1.79463,1.47461 -1.16714,0.52709 -2.74214,0.52709 v 0 q -1.31146,0 -2.2025,-0.18825 -0.89103,-0.18197 -1.85737,-0.64004 v 0 -3.16883 q 1.01654,0.52082 2.11465,0.81574 1.09811,0.28864 2.01425,0.28864 v 0 q 0.79691,0 1.16086,-0.26982 0.37022,-0.2761 0.37022,-0.70907 v 0 q 0,-0.26981 -0.1506,-0.47061 -0.14432,-0.2008 -0.4769,-0.40787 -0.32629,-0.20708 -1.74442,-0.84712 v 0 q -1.28636,-0.58356 -1.93268,-1.13576 -0.64004,-0.54592 -0.95379,-1.26126 -0.30747,-0.70906 -0.30747,-1.68167 v 0 q 0,-1.81346 1.31774,-2.83 1.324,-1.01653 3.63945,-1.01653 v 0 q 2.03935,0 4.16654,0.94124 v 0 l -1.09183,2.74214 q -1.84483,-0.84084 -3.18766,-0.84084 v 0 q -0.69024,0 -1.00399,0.23845 -0.31374,0.24472 -0.31374,0.60239 v 0 q 0,0.38904 0.39532,0.69651 0.40159,0.30747 2.17739,1.11694 v 0 q 1.70051,0.76554 2.35937,1.63775 0.66514,0.87849 0.66514,2.20878 z m 7.83111,-6.24983 v 10.24695 h -3.55161 v -10.24695 h -3.21276 v -2.90528 h 9.97085 v 2.90528 z m 12.89496,7.34794 v 2.89901 h -7.806 v -13.15223 h 7.806 v 2.84881 h -4.2544 v 2.07072 h 3.94065 v 2.85509 h -3.94065 v 2.4786 z m 6.75809,-1.88876 H 140.901 v 4.78777 h -3.55788 v -13.15223 h 4.31087 q 5.36506,0 5.36506,3.88417 v 0 q 0,2.28407 -2.23387,3.53906 v 0 l 3.83398,5.729 h -4.03478 z m -0.89732,-5.6788 v 3.00569 h 0.66514 q 1.86366,0 1.86366,-1.64403 v 0 q 0,-1.36166 -1.83228,-1.36166 v 0 z"
       style="fill:#fefbf8;fill-opacity:1;stroke-width:0.62749207" />
    <rect
       id="rect109"
       height="8.6877966"
       width="26.937321"
       y="130.4635"
       x="74.444099"
       class="i-icon-bg"
       style="fill:#fefbf8;fill-opacity:1;stroke-width:1.24509811" />
    <path
       id="path113"
       d="m 80.105762,137.90315 v 0 q -0.562039,0 -1.032934,-0.21266 -0.470897,-0.22026 -0.805082,-0.63039 -0.334182,-0.40254 -0.52406,-0.97977 -0.189878,-0.57723 -0.189878,-1.29876 v 0 q 0,-0.72154 0.189878,-1.29117 0.189878,-0.56963 0.52406,-0.96458 0.334185,-0.39494 0.805082,-0.6076 0.470895,-0.21267 1.032934,-0.21267 v 0 q 0.569632,0 1.040526,0.22026 0.463302,0.21266 0.805083,0.60761 0.341778,0.39494 0.531656,0.96458 0.189878,0.56963 0.189878,1.28357 v 0 q 0,0.72153 -0.189878,1.29876 -0.189878,0.57723 -0.531656,0.97977 -0.341781,0.41013 -0.805083,0.63039 -0.470894,0.21266 -1.040526,0.21266 z m 0,-0.66077 v 0 q 0.402539,0 0.729128,-0.17469 0.318995,-0.17468 0.554442,-0.49368 0.235447,-0.32659 0.356971,-0.7747 0.129116,-0.4557 0.129116,-1.01774 v 0 q 0,-0.55444 -0.129116,-1.00255 -0.121524,-0.44812 -0.356971,-0.75951 -0.235447,-0.3114 -0.554442,-0.4785 -0.326589,-0.16709 -0.729128,-0.16709 v 0 q -0.394947,0 -0.721535,0.16709 -0.326589,0.1671 -0.554442,0.4785 -0.235448,0.31139 -0.364564,0.75951 -0.121524,0.44811 -0.121524,1.00255 v 0 q 0,0.56204 0.121524,1.01774 0.129116,0.44811 0.364564,0.7747 0.227853,0.319 0.554442,0.49368 0.326588,0.17469 0.721535,0.17469 z m 3.850714,0.55444 v -5.97734 h 1.830419 q 0.493681,0 0.903817,0.0911 0.410135,0.0911 0.698748,0.29621 0.281019,0.20507 0.440516,0.53925 0.159496,0.34178 0.159496,0.82787 v 0 q 0,0.47849 -0.159496,0.82027 -0.159497,0.34937 -0.448112,0.57723 -0.288613,0.22785 -0.698749,0.34177 -0.402539,0.11393 -0.89622,0.11393 v 0 H 84.70839 v 2.36967 z m 0.751914,-2.99247 h 0.987364 q 0.782293,0 1.16205,-0.29621 0.379754,-0.2962 0.379754,-0.93419 v 0 q 0,-0.64559 -0.38735,-0.89622 -0.379754,-0.25064 -1.154454,-0.25064 v 0 H 84.70839 Z m 4.496297,2.99247 v -5.97734 h 3.448177 v 0.63799 h -2.688667 v 1.87599 h 2.263341 v 0.64558 h -2.263341 v 2.1722 h 2.779808 v 0.64558 z m 4.800103,0 v -5.97734 h 0.789889 l 2.157008,3.75198 0.645583,1.238 h 0.03798 q -0.03038,-0.45571 -0.06076,-0.94179 -0.03038,-0.48609 -0.03038,-0.95699 v 0 -3.0912 h 0.72153 v 5.97734 h -0.782294 l -2.1722,-3.76717 -0.645583,-1.2304 h -0.03798 q 0.03798,0.4557 0.06836,0.9266 0.03038,0.4709 0.03038,0.94179 v 0 3.12918 z"
       style="stroke-width:0.7595098" />
  </g>
</svg>
