<?xml version="1.0" encoding="UTF-8" standalone="no"?>
<!-- Created with Inkscape (http://www.inkscape.org/) -->

<svg
   xmlns:dc="http://purl.org/dc/elements/1.1/"
   xmlns:cc="http://creativecommons.org/ns#"
   xmlns:rdf="http://www.w3.org/1999/02/22-rdf-syntax-ns#"
   xmlns:svg="http://www.w3.org/2000/svg"
   xmlns="http://www.w3.org/2000/svg"
   xmlns:sodipodi="http://sodipodi.sourceforge.net/DTD/sodipodi-0.dtd"
   xmlns:inkscape="http://www.inkscape.org/namespaces/inkscape"
   width="115.81269mm"
   height="45.007881mm"
   viewBox="0 0 115.81269 45.007881"
   version="1.1"
   id="svg186"
   inkscape:version="0.92.5 (2060ec1f9f, 2020-04-08)"
   sodipodi:docname="Quarter Master White logo.svg">
  <defs
     id="defs180" />
  <sodipodi:namedview
     id="base"
     pagecolor="#ffffff"
     bordercolor="#666666"
     borderopacity="1.0"
     inkscape:pageopacity="0.0"
     inkscape:pageshadow="2"
     inkscape:zoom="1.4"
     inkscape:cx="32.901968"
     inkscape:cy="165.47849"
     inkscape:document-units="mm"
     inkscape:current-layer="layer1"
     showgrid="false"
     inkscape:window-width="1920"
     inkscape:window-height="1043"
     inkscape:window-x="640"
     inkscape:window-y="58"
     inkscape:window-maximized="1" />
  <metadata
     id="metadata183">
    <rdf:RDF>
      <cc:Work
         rdf:about="">
        <dc:format>image/svg+xml</dc:format>
        <dc:type
           rdf:resource="http://purl.org/dc/dcmitype/StillImage" />
        <dc:title></dc:title>
      </cc:Work>
    </rdf:RDF>
  </metadata>
  <g
     inkscape:label="Layer 1"
     inkscape:groupmode="layer"
     id="layer1"
     transform="translate(34.471821,-188.31749)">
    <polygon
       transform="matrix(0.36627506,0,0,0.36627506,-35.00292,188.12703)"
       style="overflow:visible;fill:#ffffff"
       points="84.46,58.25 103.43,47.29 103.43,25.39 84.46,14.42 65.48,25.39 65.48,47.29 "
       id="polygon80" />
    <path
       inkscape:connector-curvature="0"
       style="overflow:visible;fill:#ffffff;stroke-width:0.36627507"
       d="m -34.471821,194.29144 0.0037,11.94422 10.343607,5.97395 10.343608,-5.97395 v -11.94789 l -10.34727,-5.97028 z m 2.780027,1.60428 7.563581,-4.36966 7.56358,4.366 0.0037,8.73566 -7.567243,4.366 -7.563581,-4.36234 z"
       id="path82" />
    <polygon
       transform="matrix(0.36627506,0,0,0.36627506,-35.00292,188.12703)"
       style="overflow:visible;fill:#ffffff"
       points="12.68,103.92 12.68,66.08 28.66,75.3 63.23,55.35 63.23,55.16 80.18,64.94 80.19,103.92 46.43,123.4 "
       id="polygon84" />
    <path
       style="fill:#ffffff;stroke-width:0.62254906"
       inkscape:connector-curvature="0"
       d="m 18.10234,205.61959 v 0 q 0,3.79755 -2.415492,5.12358 v 0 l 2.732992,3.13765 h -3.760198 l -1.973479,-2.48398 -0.0062,-0.006 v -0.006 l -0.0062,-0.006 q -2.633383,0 -4.0341182,-1.47544 -1.400736,-1.47544 -1.400736,-4.29558 v 0 q 0,-2.78902 1.39451,-4.26447 1.3945102,-1.46921 4.0527952,-1.46921 v 0 q 2.66451,0 4.040343,1.45676 1.375834,1.46299 1.375834,4.28937 z m -7.688482,0 v 0 q 0,3.24348 2.259854,3.24348 v 0 q 1.145489,0 1.699559,-0.79064 0.554069,-0.78441 0.554069,-2.45284 v 0 q 0,-1.67466 -0.566521,-2.47152 -0.560295,-0.79686 -1.674656,-0.79686 v 0 q -2.272305,0 -2.272305,3.26838 z m 16.186274,-5.57181 h 3.019364 v 6.72975 q 0,2.19137 -1.238871,3.39289 -1.245101,1.20775 -3.57966,1.20775 v 0 q -2.284753,0 -3.511176,-1.17039 -1.226421,-1.1704 -1.226421,-3.36177 v 0 -6.79823 h 3.031813 v 6.56166 q 0,1.18285 0.44201,1.71824 0.44201,0.53539 1.307354,0.53539 v 0 q 0.927597,0 1.344705,-0.53539 0.410882,-0.52917 0.410882,-1.73691 v 0 z m 15.526375,11.17475 h -3.305736 l -0.547844,-2.09176 h -3.629462 l -0.566517,2.09176 H 30.75876 l 3.648139,-11.21833 h 4.027892 z m -6.854267,-4.56951 h 2.371913 l -0.479362,-1.83652 q -0.16809,-0.6101 -0.410885,-1.58127 -0.236566,-0.97118 -0.3175,-1.38829 v 0 q -0.06848,0.38598 -0.267694,1.28245 -0.205441,0.89647 -0.896472,3.52363 z m 11.840885,0.50427 h -0.759511 v 4.06524 H 43.33425 v -11.17475 h 3.66059 q 4.550833,0 4.550833,3.30573 v 0 q 0,1.93613 -1.892548,3.00069 v 0 l 3.25593,4.86833 h -3.42402 z m -0.759511,-4.82476 v 2.55245 h 0.560292 q 1.5875,0 1.5875,-1.39451 v 0 q 0,-1.15794 -1.556371,-1.15794 v 0 z m 12.500785,0.18677 v 8.70323 h -3.019364 v -8.70323 h -2.726764 v -2.47152 h 8.466666 v 2.47152 z m 10.95064,6.24416 v 2.45907 h -6.63015 v -11.17475 h 6.63015 v 2.42171 h -3.61079 v 1.76182 h 3.34309 v 2.42171 h -3.34309 v 2.11044 z m 5.7399,-1.60617 h -0.76574 v 4.06524 h -3.01936 v -11.17475 h 3.66681 q 4.55084,0 4.55084,3.30573 v 0 q 0,1.93613 -1.89255,3.00069 v 0 l 3.25593,4.86833 h -3.42402 z m -0.76574,-4.82476 v 2.55245 h 0.56652 q 1.58128,0 1.58128,-1.39451 v 0 q 0,-1.15794 -1.55015,-1.15794 v 0 z"
       id="path106" />
    <path
       style="fill:#ffffff;stroke-width:0.62749207"
       inkscape:connector-curvature="0"
       d="m 16.350044,229.08894 h -3.382182 l -2.691942,-9.47513 h -0.08157 q 0.188249,2.42212 0.188249,3.75868 v 0 5.71645 H 7.2388578 v -13.15223 h 4.7312902 l 2.742141,9.33708 h 0.0753 l 2.685666,-9.33708 h 4.743842 v 13.15223 h -3.269234 v -5.76665 q 0,-0.45179 0.01881,-0.99771 0.01254,-0.55219 0.119221,-2.69194 v 0 h -0.08157 z m 20.657037,0 h -3.884176 l -0.646316,-2.46604 h -4.279495 l -0.665142,2.46604 h -3.903001 l 4.292045,-13.2087 h 4.743841 z m -8.069548,-5.3776 h 2.798614 l -0.564742,-2.16485 q -0.200798,-0.71534 -0.483169,-1.85738 -0.282372,-1.14203 -0.376494,-1.63775 v 0 q -0.0753,0.45807 -0.313746,1.51225 -0.238448,1.04792 -1.060463,4.14773 z m 18.09687,1.38048 v 0 q 0,1.22361 -0.621215,2.1774 -0.621218,0.94751 -1.794629,1.4746 -1.167136,0.5271 -2.742139,0.5271 v 0 q -1.311458,0 -2.202498,-0.18825 -0.891037,-0.18197 -1.857375,-0.64004 v 0 -3.16884 q 1.016537,0.52082 2.114648,0.81574 1.098111,0.28865 2.014249,0.28865 v 0 q 0.796915,0 1.16086,-0.26982 0.37022,-0.2761 0.37022,-0.70907 v 0 q 0,-0.26982 -0.150598,-0.47062 -0.144322,-0.20079 -0.476893,-0.40787 -0.326297,-0.20707 -1.744429,-0.84711 v 0 q -1.286359,-0.58357 -1.932676,-1.13576 -0.64004,-0.54592 -0.953788,-1.26126 -0.30747,-0.70907 -0.30747,-1.68168 v 0 q 0,-1.81345 1.317734,-2.82999 1.324006,-1.01654 3.639452,-1.01654 v 0 q 2.03935,0 4.166547,0.94124 v 0 l -1.091835,2.74214 Q 44.097742,218.591 42.754908,218.591 v 0 q -0.69024,0 -1.003985,0.23845 -0.313749,0.24472 -0.313749,0.60239 v 0 q 0,0.38905 0.395322,0.69652 0.401595,0.30747 2.177397,1.11693 v 0 q 1.700503,0.76554 2.359369,1.63776 0.665141,0.87849 0.665141,2.20877 z m 7.831103,-6.24982 v 10.24694 H 51.313901 V 218.842 H 48.10114 v -2.90529 h 9.970849 v 2.90529 z m 12.894963,7.34793 v 2.89901 h -7.806004 v -13.15223 h 7.806004 v 2.84881 H 63.50607 v 2.07073 h 3.940649 v 2.85509 H 63.50607 v 2.47859 z m 6.75809,-1.88875 h -0.89732 v 4.78776 h -3.55788 v -13.15223 h 4.31087 q 5.36506,0 5.36506,3.88418 v 0 q 0,2.28407 -2.23387,3.53905 v 0 l 3.83398,5.729 h -4.03478 z m -0.89732,-5.6788 v 3.00568 h 0.66514 q 1.86366,0 1.86366,-1.64403 v 0 q 0,-1.36165 -1.83228,-1.36165 v 0 z"
       id="path110" />
    <rect
       style="fill:#ffffff;fill-opacity:1;stroke-width:1.24509811"
       class="i-icon-bg"
       x="7.1643405"
       y="189.42778"
       width="26.937321"
       height="8.6877966"
       id="rect120" />
    <path
       style="fill:#000000;stroke-width:0.7595098"
       inkscape:connector-curvature="0"
       d="m 12.826001,196.86744 v 0 q -0.562039,0 -1.032934,-0.21266 -0.470897,-0.22026 -0.805082,-0.6304 -0.334182,-0.40254 -0.52406,-0.97976 -0.189878,-0.57723 -0.189878,-1.29877 v 0 q 0,-0.72153 0.189878,-1.29116 0.189878,-0.56964 0.52406,-0.96458 0.334185,-0.39495 0.805082,-0.60761 0.470895,-0.21266 1.032934,-0.21266 v 0 q 0.569632,0 1.040526,0.22026 0.463302,0.21266 0.805083,0.6076 0.341778,0.39495 0.531656,0.96458 0.189878,0.56963 0.189878,1.28357 v 0 q 0,0.72154 -0.189878,1.29877 -0.189878,0.57722 -0.531656,0.97976 -0.341781,0.41014 -0.805083,0.6304 -0.470894,0.21266 -1.040526,0.21266 z m 0,-0.66077 v 0 q 0.402539,0 0.729128,-0.17469 0.318995,-0.17469 0.554442,-0.49368 0.235447,-0.32659 0.356971,-0.7747 0.129116,-0.45571 0.129116,-1.01775 v 0 q 0,-0.55444 -0.129116,-1.00255 -0.121524,-0.44811 -0.356971,-0.75951 -0.235447,-0.3114 -0.554442,-0.47849 -0.326589,-0.16709 -0.729128,-0.16709 v 0 q -0.394947,0 -0.721535,0.16709 -0.326589,0.16709 -0.554442,0.47849 -0.235448,0.3114 -0.364564,0.75951 -0.121524,0.44811 -0.121524,1.00255 v 0 q 0,0.56204 0.121524,1.01775 0.129116,0.44811 0.364564,0.7747 0.227853,0.31899 0.554442,0.49368 0.326588,0.17469 0.721535,0.17469 z m 3.850714,0.55444 v -5.97734 h 1.830419 q 0.493681,0 0.903817,0.0911 0.410135,0.0911 0.698748,0.29621 0.281019,0.20506 0.440516,0.53925 0.159496,0.34178 0.159496,0.82786 v 0 q 0,0.47849 -0.159496,0.82027 -0.159497,0.34938 -0.448112,0.57723 -0.288613,0.22785 -0.698749,0.34178 -0.402539,0.11393 -0.89622,0.11393 v 0 h -1.078505 v 2.36967 z m 0.751914,-2.99247 h 0.987364 q 0.782293,0 1.16205,-0.29621 0.379754,-0.29621 0.379754,-0.9342 v 0 q 0,-0.64558 -0.38735,-0.89622 -0.379754,-0.25064 -1.154454,-0.25064 v 0 h -0.987364 z m 4.496297,2.99247 v -5.97734 h 3.448177 v 0.63798 h -2.688667 v 1.87599 h 2.263341 v 0.64559 h -2.263341 v 2.17219 h 2.779808 v 0.64559 z m 4.800103,0 v -5.97734 h 0.789889 l 2.157008,3.75197 0.645583,1.238 h 0.03798 q -0.03038,-0.4557 -0.06076,-0.94179 -0.03038,-0.48608 -0.03038,-0.95698 v 0 -3.0912 h 0.72153 v 5.97734 h -0.782294 l -2.1722,-3.76717 -0.645583,-1.23041 h -0.03798 q 0.03798,0.45571 0.06836,0.92661 0.03038,0.47089 0.03038,0.94179 v 0 3.12918 z"
       id="path124" />
  </g>
</svg>
