<?xml version="1.0" encoding="UTF-8" standalone="no"?>
<svg
   xmlns:dc="http://purl.org/dc/elements/1.1/"
   xmlns:cc="http://creativecommons.org/ns#"
   xmlns:rdf="http://www.w3.org/1999/02/22-rdf-syntax-ns#"
   xmlns:svg="http://www.w3.org/2000/svg"
   xmlns="http://www.w3.org/2000/svg"
   id="svg4747"
   version="1.1"
   viewBox="0 0 115.81269 45.007881"
   height="45.007881mm"
   width="115.81269mm">
  <defs
     id="defs4741" />
  <metadata
     id="metadata4744">
    <rdf:RDF>
      <cc:Work
         rdf:about="">
        <dc:format>image/svg+xml</dc:format>
        <dc:type
           rdf:resource="http://purl.org/dc/dcmitype/StillImage" />
        <dc:title></dc:title>
      </cc:Work>
    </rdf:RDF>
  </metadata>
  <g
     transform="translate(35.227774,-176.22225)"
     style="opacity:1"
     id="layer1">
    <polygon
       style="overflow:visible;fill:#444444;fill-opacity:1"
       id="polygon80"
       points="103.43,25.39 84.46,14.42 65.48,25.39 65.48,47.29 84.46,58.25 103.43,47.29 "
       transform="matrix(0.36627506,0,0,0.36627506,-35.758872,176.03179)" />
    <path
       id="path82"
       d="m -35.227774,182.1962 0.0037,11.94423 10.343607,5.97394 10.343608,-5.97394 v -11.9479 l -10.34727,-5.97028 z m 2.780028,1.60428 7.56358,-4.36966 7.56358,4.366 0.0037,8.73566 -7.567243,4.366 -7.56358,-4.36234 z"
       style="overflow:visible;fill:#444444;fill-opacity:1;stroke-width:0.36627507" />
    <polygon
       id="polygon84"
       points="28.66,75.3 63.23,55.35 63.23,55.16 80.18,64.94 80.19,103.92 46.43,123.4 12.68,103.92 12.68,66.08 "
       style="overflow:visible;fill:#444444;fill-opacity:1"
       transform="matrix(0.36627506,0,0,0.36627506,-35.758872,176.03179)" />
    <path
       id="path106"
       d="m 17.346387,193.52435 v 0 q 0,3.79755 -2.415492,5.12358 v 0 l 2.732992,3.13765 h -3.760198 l -1.973479,-2.48397 -0.0062,-0.006 v -0.006 l -0.0062,-0.006 q -2.6333826,0 -4.0341176,-1.47544 -1.400736,-1.47545 -1.400736,-4.29559 v 0 q 0,-2.78902 1.39451,-4.26446 1.39451,-1.46922 4.0527946,-1.46922 v 0 q 2.66451,0 4.040343,1.45677 1.375834,1.46299 1.375834,4.28936 z m -7.6884816,0 v 0 q 0,3.24348 2.2598536,3.24348 v 0 q 1.145489,0 1.699559,-0.79064 0.554069,-0.78441 0.554069,-2.45284 v 0 q 0,-1.67466 -0.566521,-2.47152 -0.560295,-0.79686 -1.674656,-0.79686 v 0 q -2.2723046,0 -2.2723046,3.26838 z m 16.1862736,-5.57181 h 3.019364 v 6.72975 q 0,2.19138 -1.238871,3.3929 -1.245101,1.20774 -3.57966,1.20774 v 0 q -2.284753,0 -3.511176,-1.17039 -1.226421,-1.17039 -1.226421,-3.36177 v 0 -6.79823 h 3.031813 v 6.56166 q 0,1.18285 0.44201,1.71824 0.44201,0.53539 1.307354,0.53539 v 0 q 0.927597,0 1.344705,-0.53539 0.410882,-0.52917 0.410882,-1.73691 v 0 z m 15.526375,11.17475 h -3.305736 l -0.547844,-2.09176 h -3.629462 l -0.566517,2.09176 h -3.318188 l 3.648139,-11.21833 h 4.027892 z m -6.854267,-4.56951 H 36.8882 l -0.479362,-1.83652 q -0.16809,-0.61009 -0.410885,-1.58127 -0.236566,-0.97118 -0.3175,-1.38829 v 0 q -0.06848,0.38599 -0.267694,1.28246 -0.205441,0.89647 -0.896472,3.52362 z m 11.840885,0.50427 h -0.759511 v 4.06524 h -3.019364 v -11.17475 h 3.66059 q 4.550833,0 4.550833,3.30573 v 0 q 0,1.93613 -1.892548,3.00069 v 0 l 3.25593,4.86833 h -3.42402 z m -0.759511,-4.82476 v 2.55245 h 0.560292 q 1.5875,0 1.5875,-1.39451 v 0 q 0,-1.15794 -1.556371,-1.15794 v 0 z m 12.500785,0.18677 v 8.70323 h -3.019364 v -8.70323 h -2.726764 v -2.47152 h 8.466666 v 2.47152 z m 10.95064,6.24416 v 2.45907 h -6.63015 v -11.17475 h 6.63015 v 2.42171 h -3.61079 v 1.76182 h 3.34309 v 2.42171 h -3.34309 v 2.11044 z m 5.7399,-1.60617 h -0.76574 v 4.06524 h -3.01936 v -11.17475 h 3.66681 q 4.55084,0 4.55084,3.30573 v 0 q 0,1.93613 -1.89255,3.00069 v 0 l 3.25593,4.86833 h -3.42402 z m -0.76574,-4.82476 v 2.55245 h 0.56652 q 1.58128,0 1.58128,-1.39451 v 0 q 0,-1.15794 -1.55015,-1.15794 v 0 z"
       style="fill:#444444;fill-opacity:1;stroke-width:0.62254906" />
    <path
       id="path110"
       d="m 15.594091,216.99371 h -3.382182 l -2.6919416,-9.47514 h -0.08157 q 0.188249,2.42212 0.188249,3.75868 v 0 5.71646 h -3.143741 v -13.15224 h 4.7312896 l 2.742141,9.33708 h 0.0753 l 2.685666,-9.33708 h 4.743842 v 13.15224 H 18.19191 v -5.76666 q 0,-0.45179 0.01881,-0.99771 0.01254,-0.55219 0.119221,-2.69194 v 0 h -0.08157 z m 20.657037,0 h -3.884176 l -0.646316,-2.46605 h -4.279495 l -0.665142,2.46605 H 22.872998 L 27.165043,203.785 h 4.743841 z M 28.18158,211.6161 h 2.798614 l -0.564742,-2.16485 q -0.200798,-0.71534 -0.483169,-1.85737 -0.282372,-1.14204 -0.376494,-1.63776 v 0 q -0.0753,0.45807 -0.313746,1.51226 -0.238448,1.04791 -1.060463,4.14772 z m 18.09687,1.38048 v 0 q 0,1.22361 -0.621215,2.1774 -0.621218,0.94751 -1.794629,1.47461 -1.167136,0.52709 -2.742139,0.52709 v 0 q -1.311458,0 -2.202498,-0.18825 -0.891037,-0.18197 -1.857375,-0.64004 v 0 -3.16884 q 1.016537,0.52082 2.114648,0.81574 1.098111,0.28865 2.014249,0.28865 v 0 q 0.796915,0 1.16086,-0.26982 0.37022,-0.2761 0.37022,-0.70907 v 0 q 0,-0.26982 -0.150598,-0.47062 -0.144322,-0.20079 -0.476893,-0.40787 -0.326297,-0.20707 -1.744429,-0.84711 v 0 q -1.286359,-0.58357 -1.932676,-1.13576 -0.64004,-0.54592 -0.953788,-1.26126 -0.30747,-0.70907 -0.30747,-1.68168 v 0 q 0,-1.81345 1.317734,-2.82999 1.324006,-1.01654 3.639452,-1.01654 v 0 q 2.03935,0 4.166547,0.94124 v 0 l -1.091835,2.74214 q -1.844826,-0.84084 -3.18766,-0.84084 v 0 q -0.69024,0 -1.003985,0.23845 -0.313749,0.24472 -0.313749,0.60239 v 0 q 0,0.38905 0.395322,0.69652 0.401595,0.30747 2.177397,1.11694 v 0 q 1.700503,0.76554 2.359369,1.63775 0.665141,0.87849 0.665141,2.20877 z m 7.831103,-6.24982 v 10.24695 h -3.551605 v -10.24695 h -3.212761 v -2.90529 h 9.970849 v 2.90529 z m 12.894963,7.34793 v 2.89902 h -7.806004 v -13.15224 h 7.806004 v 2.84882 h -4.254399 v 2.07072 h 3.940649 v 2.85509 h -3.940649 v 2.47859 z m 6.75809,-1.88875 h -0.89732 v 4.78777 h -3.55788 v -13.15224 h 4.31087 q 5.36506,0 5.36506,3.88418 v 0 q 0,2.28407 -2.23387,3.53905 v 0 l 3.83398,5.72901 h -4.03478 z m -0.89732,-5.6788 v 3.00569 h 0.66514 q 1.86366,0 1.86366,-1.64403 v 0 q 0,-1.36166 -1.83228,-1.36166 v 0 z"
       style="fill:#444444;fill-opacity:1;stroke-width:0.62749207" />
    <rect
       id="rect120"
       height="8.6877966"
       width="26.937321"
       y="177.33255"
       x="6.4083881"
       class="i-icon-bg"
       style="fill:#444444;fill-opacity:1;stroke-width:1.24509811" />
    <path
       id="path124"
       d="m 12.070048,184.7722 v 0 q -0.562039,0 -1.032934,-0.21266 -0.470897,-0.22026 -0.805082,-0.6304 -0.3341816,-0.40254 -0.5240596,-0.97976 -0.189878,-0.57723 -0.189878,-1.29876 v 0 q 0,-0.72154 0.189878,-1.29117 0.189878,-0.56963 0.5240596,-0.96458 0.334185,-0.39494 0.805082,-0.60761 0.470895,-0.21266 1.032934,-0.21266 v 0 q 0.569632,0 1.040526,0.22026 0.463302,0.21266 0.805083,0.60761 0.341778,0.39494 0.531656,0.96457 0.189878,0.56964 0.189878,1.28358 v 0 q 0,0.72153 -0.189878,1.29876 -0.189878,0.57722 -0.531656,0.97976 -0.341781,0.41014 -0.805083,0.6304 -0.470894,0.21266 -1.040526,0.21266 z m 0,-0.66077 v 0 q 0.402539,0 0.729128,-0.17469 0.318995,-0.17469 0.554442,-0.49368 0.235447,-0.32659 0.356971,-0.7747 0.129116,-0.45571 0.129116,-1.01774 v 0 q 0,-0.55445 -0.129116,-1.00256 -0.121524,-0.44811 -0.356971,-0.75951 -0.235447,-0.3114 -0.554442,-0.47849 -0.326589,-0.16709 -0.729128,-0.16709 v 0 q -0.394947,0 -0.721535,0.16709 -0.326589,0.16709 -0.554442,0.47849 -0.235448,0.3114 -0.364564,0.75951 -0.121524,0.44811 -0.121524,1.00256 v 0 q 0,0.56203 0.121524,1.01774 0.129116,0.44811 0.364564,0.7747 0.227853,0.31899 0.554442,0.49368 0.326588,0.17469 0.721535,0.17469 z m 3.850714,0.55444 v -5.97734 h 1.830419 q 0.493681,0 0.903817,0.0911 0.410135,0.0911 0.698748,0.29621 0.281019,0.20506 0.440516,0.53925 0.159496,0.34178 0.159496,0.82786 v 0 q 0,0.4785 -0.159496,0.82028 -0.159497,0.34937 -0.448112,0.57722 -0.288613,0.22786 -0.698749,0.34178 -0.402539,0.11393 -0.89622,0.11393 v 0 h -1.078505 v 2.36967 z m 0.751914,-2.99247 h 0.987364 q 0.782293,0 1.16205,-0.29621 0.379754,-0.29621 0.379754,-0.9342 v 0 q 0,-0.64558 -0.38735,-0.89622 -0.379754,-0.25063 -1.154454,-0.25063 v 0 h -0.987364 z m 4.496297,2.99247 v -5.97734 h 3.448177 v 0.63799 h -2.688667 v 1.87598 h 2.263341 v 0.64559 h -2.263341 v 2.1722 h 2.779808 v 0.64558 z m 4.800103,0 v -5.97734 h 0.789889 l 2.157008,3.75198 0.645583,1.238 h 0.03798 q -0.03038,-0.45571 -0.06076,-0.9418 -0.03038,-0.48608 -0.03038,-0.95698 v 0 -3.0912 h 0.72153 v 5.97734 h -0.782294 l -2.1722,-3.76717 -0.645583,-1.23041 h -0.03798 q 0.03798,0.45571 0.06836,0.92661 0.03038,0.47089 0.03038,0.94179 v 0 3.12918 z"
       style="fill:#ffffff;stroke-width:0.7595098" />
  </g>
</svg>
