<?xml version="1.0" encoding="UTF-8" standalone="no"?>
<svg
   xmlns:dc="http://purl.org/dc/elements/1.1/"
   xmlns:cc="http://creativecommons.org/ns#"
   xmlns:rdf="http://www.w3.org/1999/02/22-rdf-syntax-ns#"
   xmlns:svg="http://www.w3.org/2000/svg"
   xmlns="http://www.w3.org/2000/svg"
   id="svg106"
   version="1.1"
   viewBox="0 0 128.29846 52.322906"
   height="52.322906mm"
   width="128.29846mm">
  <defs
     id="defs100" />
  <metadata
     id="metadata103">
    <rdf:RDF>
      <cc:Work
         rdf:about="">
        <dc:format>image/svg+xml</dc:format>
        <dc:type
           rdf:resource="http://purl.org/dc/dcmitype/StillImage" />
        <dc:title></dc:title>
      </cc:Work>
    </rdf:RDF>
  </metadata>
  <g
     transform="translate(104.97066,-60.683784)"
     id="layer1">
    <polygon
       style="overflow:visible;color-interpolation-filters:sRGB;fill:#101115"
       id="polygon80"
       points="84.46,14.42 65.48,25.39 65.48,47.29 84.46,58.25 103.43,47.29 103.43,25.39 "
       transform="matrix(0.4057632,0,0,0.42580491,-105.55902,60.462366)" />
    <path
       style="overflow:visible;color-interpolation-filters:sRGB;fill:#101115;stroke-width:0.41566327"
       id="path82"
       d="m -104.97066,67.628663 0.004,13.885497 11.458756,6.944879 11.458753,-6.944879 V 67.624405 l -11.46281,-6.940621 z m 3.07974,1.865025 8.379009,-5.079852 8.37901,5.075594 0.0041,10.155447 -8.383068,5.075594 -8.379011,-5.071336 z" />
    <polygon
       style="overflow:visible;color-interpolation-filters:sRGB;fill:#94b17b"
       id="polygon84"
       points="63.23,55.35 63.23,55.16 80.18,64.94 80.19,103.92 46.43,123.4 12.68,103.92 12.68,66.08 28.66,75.3 "
       transform="matrix(0.4057632,0,0,0.42580491,-105.55902,60.462366)" />
    <path
       id="path95"
       d="m -46.72848,80.797955 v 0 q 0,4.414756 -2.675906,5.956302 v 0 l 3.027635,3.647601 h -4.165584 l -2.186241,-2.887684 -0.0069,-0.0072 v -0.0072 l -0.0069,-0.0072 q -2.917288,0 -4.469034,-1.715242 -1.55175,-1.715241 -1.55175,-4.993741 v 0 q 0,-3.242312 1.544852,-4.957553 1.544852,-1.708004 4.489725,-1.708004 v 0 q 2.951771,0 4.475935,1.693529 1.524162,1.700767 1.524162,4.986503 z m -8.517377,0 v 0 q 0,3.770636 2.503488,3.770636 v 0 q 1.268987,0 1.882788,-0.919138 0.613804,-0.9119 0.613804,-2.851498 v 0 q 0,-1.946835 -0.627597,-2.87321 -0.620699,-0.926375 -1.855202,-0.926375 v 0 q -2.517281,0 -2.517281,3.799585 z m 17.931318,-6.477388 h 3.344881 v 7.823527 q 0,2.547531 -1.372436,3.944331 -1.379331,1.404038 -3.96558,1.404038 v 0 q -2.531073,0 -3.889716,-1.360614 -1.358641,-1.360613 -1.358641,-3.908145 v 0 -7.903137 h 3.358674 v 7.62812 q 0,1.375087 0.489661,1.997496 0.489665,0.622408 1.4483,0.622408 v 0 q 1.027602,0 1.489679,-0.622408 0.455178,-0.615171 0.455178,-2.019208 v 0 z m 17.200274,12.990963 h -3.662127 l -0.606906,-2.431735 h -4.020754 l -0.627597,2.431735 h -3.67592 l 4.041445,-13.041624 h 4.462139 z m -7.593224,-5.312182 h 2.627628 l -0.531043,-2.135005 q -0.186211,-0.709256 -0.455181,-1.838276 -0.262073,-1.129019 -0.351729,-1.613919 v 0 q -0.07586,0.448713 -0.296556,1.490885 -0.227589,1.042172 -0.993119,4.096315 z m 13.117449,0.586222 h -0.841393 v 4.72596 h -3.344881 V 74.320567 h 4.055237 q 5.0414604,0 5.0414604,3.843009 v 0 q 0,2.250802 -2.0965874,3.488381 v 0 l 3.6069564,5.659573 h -3.7931644 z m -0.841393,-5.608912 v 2.967295 h 0.620699 q 1.758648,0 1.758648,-1.621156 v 0 q 0,-1.346139 -1.724165,-1.346139 v 0 z m 13.8484994,0.217119 V 87.31153 h -3.34488 V 77.193777 h -3.020742 v -2.87321 h 9.379462 v 2.87321 z M 10.548286,84.452794 V 87.31153 H 3.2033464 V 74.320567 h 7.3449396 v 2.815312 H 6.5482264 v 2.048157 h 3.7035096 v 2.815312 H 6.5482264 v 2.453446 z m 6.35872,-1.867224 h -0.84828 v 4.72596 h -3.34488 V 74.320567 h 4.06213 q 5.04146,0 5.04146,3.843009 v 0 q 0,2.250802 -2.09659,3.488381 v 0 l 3.60696,5.659573 h -3.79317 z m -0.84828,-5.608912 v 2.967295 h 0.62759 q 1.75175,0 1.75175,-1.621156 v 0 q 0,-1.346139 -1.71727,-1.346139 v 0 z"
       style="color-interpolation-filters:sRGB;fill:#101115;stroke-width:0.70649302" />
    <path
       id="path99"
       d="m -48.669688,108.08173 h -3.746818 l -2.982158,-11.015102 h -0.09037 q 0.208541,2.81578 0.208541,4.369572 v 0 6.64553 h -3.48266 V 92.791892 h 5.24137 l 3.037771,10.854618 h 0.08342 l 2.975208,-10.854618 h 5.255273 v 15.289838 h -3.621691 v -6.70389 q 0,-0.52523 0.02085,-1.15987 0.01389,-0.641941 0.132078,-3.129459 v 0 h -0.09037 z m 22.884074,0 h -4.302929 l -0.715997,-2.86685 h -4.740868 l -0.736851,2.86685 h -4.323784 l 4.754772,-15.355489 h 5.255276 z m -8.939527,-6.25162 h 3.100335 l -0.625629,-2.516694 q -0.222446,-0.831604 -0.53526,-2.159251 -0.312812,-1.327647 -0.417084,-1.903934 v 0 q -0.08342,0.532517 -0.34757,1.758037 -0.264154,1.218227 -1.174792,4.821842 z m 20.047897,1.60485 v 0 q 0,1.42248 -0.688189,2.53129 -0.688192,1.10151 -1.988108,1.71427 -1.292963,0.61276 -3.037769,0.61276 v 0 q -1.452848,0 -2.43995,-0.21884 -0.987103,-0.21156 -2.05762,-0.74407 v 0 -3.68386 q 1.12613,0.60547 2.342629,0.94832 1.216498,0.33556 2.231406,0.33556 v 0 q 0.88283,0 1.286012,-0.31368 0.410134,-0.32097 0.410134,-0.8243 v 0 q 0,-0.31368 -0.166833,-0.54711 -0.159883,-0.23343 -0.52831,-0.47416 -0.361474,-0.24073 -1.932493,-0.9848 v 0 q -1.425043,-0.67841 -2.141037,-1.32035 -0.709046,-0.634644 -1.056616,-1.466248 -0.34062,-0.824309 -0.34062,-1.954998 v 0 q 0,-2.10819 1.459797,-3.28994 1.466749,-1.181754 4.031824,-1.181754 v 0 q 2.259213,0 4.615743,1.094216 v 0 l -1.209548,3.187814 q -2.043716,-0.977501 -3.531319,-0.977501 v 0 q -0.764657,0 -1.112229,0.277202 -0.34757,0.284496 -0.34757,0.700299 v 0 q 0,0.452276 0.437938,0.809718 0.444892,0.357444 2.412143,1.298469 v 0 q 1.883836,0.889963 2.613734,1.903933 0.736851,1.02127 0.736851,2.56776 z m 8.6753734,-7.26559 v 11.91236 h -3.934503 V 96.16937 h -3.5591274 v -3.377478 h 11.0458074 v 3.377478 z m 14.285167,8.54218 v 3.37018 H -0.36427357 V 92.791892 H 8.2832964 v 3.311827 h -4.71306 v 2.407272 h 4.36549 v 3.319119 h -4.36549 v 2.88144 z m 7.4866796,-2.19573 h -0.99405 v 5.56591 h -3.94146 V 92.791892 h 4.77563 q 5.94346,0 5.94346,4.515464 v 0 q 0,2.655295 -2.4747,4.114254 v 0 l 4.24732,6.66012 h -4.46977 z m -0.99405,-6.601765 v 3.494193 h 0.73685 q 2.06457,0 2.06457,-1.911228 v 0 q 0,-1.582965 -2.02981,-1.582965 v 0 z"
       style="color-interpolation-filters:sRGB;fill:#101115;stroke-width:0.71210253" />
    <rect
       style="color-interpolation-filters:sRGB;fill:#101115;fill-opacity:1;stroke-width:1.41298604"
       id="rect109"
       height="10.099805"
       width="29.841436"
       y="61.974525"
       x="-58.845707"
       class="i-icon-bg" />
    <path
       id="path113"
       d="m -52.57366,70.623338 v 0 q -0.622631,0 -1.144294,-0.247226 -0.521663,-0.256056 -0.891876,-0.73285 -0.370213,-0.467964 -0.580562,-1.139007 -0.210346,-0.671043 -0.210346,-1.509846 v 0 q 0,-0.838804 0.210346,-1.501017 0.210349,-0.662214 0.580562,-1.121348 0.370213,-0.459135 0.891876,-0.706361 0.521663,-0.247226 1.144294,-0.247226 v 0 q 0.631044,0 1.152707,0.256055 0.51325,0.247227 0.891876,0.706362 0.378627,0.459134 0.588976,1.121347 0.210349,0.662214 0.210349,1.492188 v 0 q 0,0.838803 -0.210349,1.509846 -0.210349,0.671043 -0.588976,1.139007 -0.378626,0.476794 -0.891876,0.73285 -0.521663,0.247226 -1.152707,0.247226 z m 0,-0.768167 v 0 q 0.445939,0 0.807736,-0.203079 0.353385,-0.203079 0.614217,-0.573918 0.260831,-0.379669 0.395454,-0.900611 0.143039,-0.52977 0.143039,-1.183154 v 0 q 0,-0.644554 -0.143039,-1.165496 -0.134623,-0.520941 -0.395454,-0.882951 -0.260832,-0.36201 -0.614217,-0.556259 -0.361797,-0.194249 -0.807736,-0.194249 v 0 q -0.437523,0 -0.799322,0.194249 -0.361799,0.194249 -0.614217,0.556259 -0.260832,0.36201 -0.403868,0.882951 -0.134623,0.520942 -0.134623,1.165496 v 0 q 0,0.653384 0.134623,1.183154 0.143036,0.520942 0.403868,0.900611 0.252418,0.370839 0.614217,0.573918 0.361799,0.203079 0.799322,0.203079 z m 4.265861,0.644554 v -6.948826 h 2.027756 q 0.546904,0 1.001258,0.105954 0.45435,0.105955 0.77408,0.344351 0.311314,0.238397 0.488008,0.626896 0.176692,0.397328 0.176692,0.962416 v 0 q 0,0.55626 -0.176692,0.953588 -0.176694,0.406157 -0.496421,0.671043 -0.319731,0.264885 -0.774081,0.397328 -0.44594,0.132442 -0.992844,0.132442 v 0 h -1.194779 v 2.754808 z m 0.832977,-3.478828 h 1.093811 q 0.866635,0 1.287331,-0.344351 0.420698,-0.344351 0.420698,-1.08603 v 0 q 0,-0.750508 -0.429112,-1.041882 -0.420696,-0.291374 -1.278917,-0.291374 v 0 h -1.093811 z m 4.981046,3.478828 v -6.948826 h 3.819922 v 0.741679 h -2.978528 v 2.18089 h 2.507347 v 0.750508 h -2.507347 v 2.52524 h 3.079496 v 0.750509 z m 5.317601,0 v -6.948826 h 0.875049 l 2.389555,4.361779 0.715182,1.43921 h 0.04207 q -0.03365,-0.52977 -0.06731,-1.094859 -0.03366,-0.565089 -0.03366,-1.112519 v 0 -3.593611 h 0.799322 v 6.948826 h -0.866635 l -2.406383,-4.379438 -0.715182,-1.430381 h -0.04207 q 0.04207,0.529771 0.07573,1.077201 0.03365,0.547429 0.03365,1.094859 v 0 3.637759 z"
       style="color-interpolation-filters:sRGB;fill:#fefbf8;stroke-width:0.86192143" />
  </g>
</svg>
