<?xml version="1.0" encoding="UTF-8" standalone="no"?>
<svg xmlns:dc="http://purl.org/dc/elements/1.1/" xmlns:cc="http://creativecommons.org/ns#"
     xmlns:rdf="http://www.w3.org/1999/02/22-rdf-syntax-ns#" xmlns="http://www.w3.org/2000/svg"
     xmlns:sodipodi="http://sodipodi.sourceforge.net/DTD/sodipodi-0.dtd"
     xmlns:inkscape="http://www.inkscape.org/namespaces/inkscape" viewBox="0 -256 1792 1792" id="svg3001" version="1.1"
     inkscape:version="0.48.3.1 r9886" width="100%" height="100%" sodipodi:docname="chevron_down_font_awesome.svg">
  <metadata id="metadata3011">
    <rdf:RDF>
      <cc:Work rdf:about="">
        <dc:format>image/svg+xml</dc:format>
        <dc:type rdf:resource="http://purl.org/dc/dcmitype/StillImage"/>
      </cc:Work>
    </rdf:RDF>
  </metadata>
  <defs id="defs3009"/>
  <sodipodi:namedview pagecolor="#ffffff" bordercolor="#666666" borderopacity="1" objecttolerance="10" gridtolerance="10" guidetolerance="10" inkscape:pageopacity="0" inkscape:pageshadow="2" inkscape:window-width="640" inkscape:window-height="480" id="namedview3007" showgrid="false" inkscape:zoom="0.13169643" inkscape:cx="896" inkscape:cy="896" inkscape:window-x="0" inkscape:window-y="25" inkscape:window-maximized="0" inkscape:current-layer="svg3001"/>
  <g transform="matrix(1,0,0,-1,68.338983,1133.5593)" id="g3003">
    <path d="m 1611,832 q 0,-53 -37,-90 L 923,91 Q 885,53 832,53 778,53 742,91 L 91,742 q -38,36 -38,90 0,53 38,91 l 74,75 q 39,37 91,37 53,0 90,-37 l 486,-486 486,486 q 37,37 90,37 52,0 91,-37 l 75,-75 q 37,-39 37,-91 z" id="path3005" inkscape:connector-curvature="0" style="fill:currentColor"/>
  </g>
</svg>