<?xml version="1.0" encoding="UTF-8" standalone="no"?>
<!-- Created with Inkscape (http://www.inkscape.org/) -->

<svg
   xmlns:dc="http://purl.org/dc/elements/1.1/"
   xmlns:cc="http://creativecommons.org/ns#"
   xmlns:rdf="http://www.w3.org/1999/02/22-rdf-syntax-ns#"
   xmlns:svg="http://www.w3.org/2000/svg"
   xmlns="http://www.w3.org/2000/svg"
   xmlns:sodipodi="http://sodipodi.sourceforge.net/DTD/sodipodi-0.dtd"
   xmlns:inkscape="http://www.inkscape.org/namespaces/inkscape"
   width="41.641182mm"
   height="52.634048mm"
   viewBox="0 0 41.641182 52.634048"
   version="1.1"
   id="svg434"
   inkscape:version="0.92.5 (2060ec1f9f, 2020-04-08)"
   sodipodi:docname="oqm-sc-guide-icon.svg">
  <metadata
     id="metadata9">
    <rdf:RDF>
      <cc:Work
         rdf:about="">
        <dc:format>image/svg+xml</dc:format>
        <dc:type
           rdf:resource="http://purl.org/dc/dcmitype/StillImage" />
        <dc:title></dc:title>
      </cc:Work>
    </rdf:RDF>
  </metadata>
  <sodipodi:namedview
     id="namedview436"
     pagecolor="#ffffff"
     bordercolor="#000000"
     borderopacity="0.25"
     inkscape:showpageshadow="2"
     inkscape:pageopacity="0.0"
     inkscape:pagecheckerboard="0"
     inkscape:deskcolor="#d1d1d1"
     inkscape:document-units="mm"
     showgrid="false"
     inkscape:zoom="6.8321274"
     inkscape:cx="148.2624"
     inkscape:cy="134.25304"
     inkscape:window-width="2520"
     inkscape:window-height="1376"
     inkscape:window-x="40"
     inkscape:window-y="27"
     inkscape:window-maximized="1"
     inkscape:current-layer="layer1" />
  <defs
     id="defs431">
    <radialGradient
       id="radialGradient3026-9-1"
       gradientUnits="userSpaceOnUse"
       cy="873.19"
       cx="-464.92001"
       gradientTransform="matrix(-0.12272793,0,0,0.12272793,-1807.3634,-1063.9497)"
       r="255.59"
       inkscape:collect="always">
      <stop
         id="stop48-0-2"
         style="stop-color:#ffd046;stop-opacity:1"
         offset=".5" />
      <stop
         id="stop50-8-9"
         style="stop-color:#f0a957;stop-opacity:1"
         offset="1" />
    </radialGradient>
  </defs>
  <g
     inkscape:label="Layer 1"
     inkscape:groupmode="layer"
     id="layer1"
     transform="translate(-81.09958,-64.178131)">
    <polygon
       transform="matrix(0.4057632,0,0,0.42580491,80.643533,64.111385)"
       points="12.68,103.92 12.68,66.08 28.66,75.3 63.23,55.35 63.23,55.16 80.18,64.94 80.19,103.92 46.43,123.4 "
       id="polygon84"
       style="overflow:visible;color-interpolation-filters:sRGB;fill:#94b17b;stroke:#ffffff;stroke-width:0.636533;stroke-miterlimit:4;stroke-dasharray:none;stroke-opacity:1" />
    <polygon
       transform="matrix(0.4057632,0,0,0.42580491,80.643533,64.111385)"
       points="65.48,25.39 65.48,47.29 84.46,58.25 103.43,47.29 103.43,25.39 84.46,14.42 "
       id="polygon80"
       style="overflow:visible;color-interpolation-filters:sRGB;fill:#101115;stroke:#ffffff;stroke-width:0.636533;stroke-miterlimit:4;stroke-dasharray:none;stroke-opacity:1" />
    <path
       transform="translate(-6.2499998e-7,1.2708333e-6)"
       d="m 81.231893,71.277682 0.004,13.885494 11.458756,6.94488 11.458751,-6.94488 V 71.273424 L 92.690592,64.332803 Z m 3.07974,1.865025 8.379009,-5.079852 8.379008,5.075594 0.004,10.155447 -8.383066,5.07559 -8.379011,-5.07133 z"
       id="path82"
       style="overflow:visible;color-interpolation-filters:sRGB;fill:#101115;stroke:#ffffff;stroke-width:0.264583;stroke-miterlimit:4;stroke-dasharray:none;stroke-opacity:1" />
    <g
       transform="matrix(0.14785603,0,0,0.15279151,47.328249,20.082487)"
       id="layer1-3"
       inkscape:label="Layer 1">
      <g
         id="g15745"
         style="display:inline"
         transform="matrix(3.7795277,0,0,3.7795277,7058.3176,3939.2809)">
        <path
           inkscape:connector-curvature="0"
           id="path9-1-4"
           style="fill:#ffffff;stroke:#000000;stroke-width:1.8994602;stroke-linejoin:round;stroke-opacity:1"
           d="m -1764.6075,-935.9985 c 0,0 3.8003,2.04759 9.6285,4.07616 3.5202,1.22728 9.7726,-0.84277 13.0276,-1.70481 3.26,-0.86511 8.8927,-2.65449 7.3298,-4.21743 -1.5631,-1.56257 -6.0571,-4.89537 -6.0571,-4.89537 0,0 4.2789,7.06582 -23.9295,6.74145 z" />
        <path
           d="m -1738.5952,-941.13712 c 0,2.98008 -8.9157,5.39684 -19.915,5.39684 -10.9985,0 -19.9126,-2.41639 -19.9126,-5.39684 2.2937,-1.66297 1.9624,-3.06329 1.9624,-3.06329 h 35.9961 c 0,0 -0.3197,1.39983 1.8691,3.06255 z"
           style="fill:#ffffff;stroke:#000000;stroke-width:1.8994602;stroke-linejoin:round;stroke-opacity:1"
           id="path13-3-8"
           inkscape:connector-curvature="0" />
        <path
           inkscape:connector-curvature="0"
           id="path19-3-0"
           style="fill:#ffffff;stroke-linejoin:round"
           d="m -1774.2711,-954.86792 c 0.4453,-1.01594 2.1705,-4.52486 5.6775,-6.995 6.3577,-4.4835 14.2414,-3.62821 18.8768,-0.93691 3.1324,1.82227 5.2903,4.17054 7.0001,7.61821 0.4172,0.84216 1.1951,2.63915 1.7282,5.20993 0.4613,2.22972 0.5058,3.63581 0.58,5.97108 0,1.95125 -3.7069,3.71117 -10.0877,4.56818 -8.93,1.19586 -19.7224,0.15709 -24.1026,-2.3198 -1.2534,-0.70839 -1.8451,-1.46218 -1.8426,-2.19634 0.092,-3.01727 0.204,-6.43549 2.1707,-10.91935 z" />
        <path
           inkscape:connector-curvature="0"
           id="path23-1-6"
           style="fill:#74fc00;fill-opacity:1;stroke:#000000;stroke-width:1.8994602;stroke-linejoin:round;stroke-opacity:1"
           d="m -1774.2711,-954.86792 c 0.4453,-1.01594 2.1705,-4.52486 5.6775,-6.995 6.3577,-4.4835 14.2414,-3.62821 18.8768,-0.93691 3.1324,1.82227 5.2903,4.17054 7.0001,7.61821 0.4172,0.84216 1.1951,2.63915 1.7282,5.20993 0.4613,2.22972 0.5058,3.63581 0.58,5.97108 0,1.95125 -3.7069,3.71117 -10.0877,4.56818 -8.93,1.19586 -19.7224,0.15709 -24.1026,-2.3198 -1.2534,-0.70839 -1.8451,-1.46218 -1.8426,-2.19634 0.092,-3.01727 0.204,-6.43549 2.1707,-10.91935 z" />
        <path
           inkscape:connector-curvature="0"
           id="path27-6-0"
           style="fill:#ffbd34;fill-opacity:1;stroke:#ffbd34;stroke-width:0.63316566;stroke-linejoin:round;stroke-opacity:1"
           d="m -1764.7572,-936.08809 c 0,0 3.8014,2.04415 9.6284,4.07591 3.5189,1.22483 9.7706,-0.84277 13.0263,-1.70788 3.2599,-0.86192 8.8934,-2.65141 7.3303,-4.21754 -1.5629,-1.56233 -6.0547,-4.89329 -6.0547,-4.89329 0,0 4.277,7.06618 -23.9307,6.7428 z" />
        <path
           d="m -1738.7453,-941.22671 c 0,2.98032 -8.913,5.39499 -19.9138,5.39499 -10.998,0 -19.9138,-2.41405 -19.9138,-5.39499 2.2952,-1.66272 1.961,-3.06243 1.961,-3.06243 h 35.9986 c 0,0 -0.214,1.63369 1.9731,3.29629 z"
           style="fill:#ffbd34;fill-opacity:1;stroke:#ffbd34;stroke-width:0.63316566;stroke-linejoin:round;stroke-opacity:1"
           id="path31-3-3"
           inkscape:connector-curvature="0"
           sodipodi:nodetypes="csccccc" />
        <path
           inkscape:connector-curvature="0"
           id="path37-0-6"
           style="fill:#ffd520;stroke-linejoin:round"
           d="m -1774.422,-954.95874 c 0.4452,-1.01521 2.1713,-4.52265 5.6774,-6.99513 6.357,-4.48337 14.2401,-3.6271 18.8767,-0.93616 3.1344,1.82238 5.2911,4.17041 6.9995,7.61526 0.418,0.84216 1.1977,2.63915 1.7282,5.21128 0.46,2.22825 0.505,3.63557 0.5804,5.96789 0,1.95137 -3.7087,3.71424 -10.0905,4.5683 -8.9296,1.19893 -19.7211,0.15697 -24.1,-2.31993 -1.2535,-0.70838 -1.8464,-1.45948 -1.8437,-2.19633 0.096,-3.01248 0.2077,-6.43119 2.1721,-10.91518 z" />
        <path
           inkscape:connector-curvature="0"
           id="path41-6-5"
           style="fill:none;stroke:#000000;stroke-width:0.63316566;stroke-linejoin:round"
           d="m -1774.422,-954.95874 c 0.4452,-1.01521 2.1713,-4.52265 5.6774,-6.99513 6.357,-4.48337 14.2401,-3.6271 18.8767,-0.93616 3.1344,1.82238 5.2911,4.17041 6.9995,7.61526 0.418,0.84216 1.1977,2.63915 1.7282,5.21128 0.46,2.22825 0.505,3.63557 0.5804,5.96789 0,1.95137 -3.7087,3.71424 -10.0905,4.5683 -8.9296,1.19893 -19.7211,0.15697 -24.1,-2.31993 -1.2535,-0.70838 -1.8464,-1.45948 -1.8437,-2.19633 0.096,-3.01248 0.2077,-6.43119 2.1721,-10.91518 z" />
        <path
           inkscape:connector-curvature="0"
           id="path52-0-7"
           style="fill:url(#radialGradient3026-9-1);stroke:#fac44b;stroke-linejoin:round;stroke-opacity:1"
           d="m -1774.422,-954.95874 c 0.4452,-1.01521 2.1713,-4.52265 5.6774,-6.99513 6.357,-4.48337 14.2401,-3.6271 18.8767,-0.93616 3.1344,1.82238 5.2911,4.17041 6.9995,7.61526 0.418,0.84216 1.1977,2.63915 1.7282,5.21128 0.46,2.22825 0.505,3.63557 0.5804,5.96789 0,1.95137 -3.7087,3.71424 -10.0905,4.5683 -8.9296,1.19893 -19.7211,0.15697 -24.1,-2.31993 -1.2535,-0.70838 -1.8464,-1.45948 -1.8437,-2.19633 0.096,-3.01248 0.2077,-6.43119 2.1721,-10.91518 z" />
        <path
           inkscape:connector-curvature="0"
           id="path60-2-9"
           style="fill:#cccccc;stroke-linejoin:round"
           d="m -1767.915,-962.62629 c 13.3737,-8.528 26.9474,8.98687 26.5227,20.23415 l 1.2441,0.50196 c -7e-4,-12.25929 -13.2853,-30.32975 -27.7672,-20.73611" />
        <polygon
           points="66.729,266.15 76.865,262.06 61.197,281.15 "
           style="fill:#cccccc;stroke-linejoin:round"
           id="polygon62-6-3"
           transform="matrix(-0.12272793,0,0,0.12272793,-1731.9594,-974.55471)" />
        <path
           inkscape:connector-curvature="0"
           id="path64-7-7"
           style="fill:#ffd467;fill-opacity:1;stroke:none;stroke-width:0.63316566;stroke-linecap:round;stroke-linejoin:round"
           d="m -1745.3502,-940.13566 c 0,-11.09583 -6.6212,-28.38329 -18.6117,-24.45845 12.8582,-4.35218 23.8104,11.56833 23.8104,22.70098 l 0.6789,1.84129 -5.2013,1.75427 -0.6765,-1.83772 z" />
        <path
           inkscape:connector-curvature="0"
           id="path70-9-2"
           style="fill:#cccccc;stroke-linejoin:round"
           d="m -1745.349,-940.13566 0.6782,1.84141 -3.0497,-2.13755 c 0.4259,-11.24802 -6.82,-30.72126 -20.1949,-22.19658 14.4819,-9.59106 22.566,10.23183 22.566,22.49358 z" />
        <path
           inkscape:connector-curvature="0"
           id="path74-7-4"
           style="fill:#ffbd34;fill-opacity:1;stroke:none;stroke-width:0.63316566;stroke-linecap:round;stroke-linejoin:round"
           d="m -1745.349,-940.13566 0.6782,1.84141 -3.0497,-2.13755 c 0.4259,-11.24802 -6.82,-30.72126 -20.1949,-22.19658 14.4819,-9.59106 22.566,10.23183 22.566,22.49358 z" />
        <polygon
           points="265.49,233.41 267.24,277.31 253.03,251.64 254.68,222.57 "
           style="fill:#ffbd34;fill-opacity:1;stroke:#ffbd34;stroke-width:5.15910006;stroke-linecap:round;stroke-linejoin:round;stroke-opacity:1"
           id="polygon78-8-4"
           transform="matrix(-0.12272793,0,0,0.12272793,-1731.9594,-974.55471)" />
        <polygon
           points="327.99,223.07 329.73,266.98 320.7,241.3 322.32,217.4 "
           id="polygon80-2-4"
           transform="matrix(-0.12272793,0,0,0.12272793,-1731.9594,-974.55471)"
           style="stroke-linejoin:round" />
        <path
           d="m -1764.7572,-940.52103 c 0,0 -7.3005,-0.90536 -7.6667,-1.27121 -0.3672,-0.36291 0.2126,-5.38788 0.2126,-5.38788 l 7.6696,1.26802 z"
           style="fill:#ffd467;fill-opacity:1;stroke:#ffd467;stroke-width:0.63316566;stroke-linecap:round;stroke-linejoin:round;stroke-opacity:1"
           id="path82-9-3"
           inkscape:connector-curvature="0" />
        <polygon
           points="317.16,212.24 254.68,222.57 265.49,233.41 327.99,223.07 "
           style="fill:#f4b253;fill-opacity:1;stroke:#f4b253;stroke-width:5.15910006;stroke-linecap:round;stroke-linejoin:round;stroke-opacity:1"
           id="polygon84-9-0"
           transform="matrix(-0.12272793,0,0,0.12272793,-1731.9594,-974.55471)" />
      </g>
    </g>
    <g
       id="#000000ff"
       transform="matrix(-0.08751496,0,0,0.075499,122.61868,100.41087)"
       style="stroke:#ffffff;stroke-opacity:1">
      <path
         id="path3949"
         d="m 148.59,0 h 17.77 c 12.79,3.13 26.71,4.52 38.02,11.6 31.72,43.27 64.21,86.03 95.27,129.78 2.46,2.19 -0.14,4.89 -2.06,6.29 -30.3,-14.14 -67.07,-5.66 -94.23,11.82 0.54,13.74 12.96,22.84 24.52,27.84 3.44,1.08 0.63,4.51 -0.64,6.36 -14.53,-5.19 -27.99,-16.55 -30.51,-32.48 -42.48,-4.73 -86.94,17.33 -113,50.79 H 80.41 C 53.65,171.54 26.92,131.05 0,90.7 V 88.47 C 5.22,79.1 11.63,70.5 15.52,60.41 34.2,27.82 77.35,2.13 114.34,18.55 122.65,7.82 135.55,2.34 148.59,0 m 2.75,6.45 c -11.49,1.24 -25.98,5.59 -31.04,16.53 24.67,34.33 50.45,68.06 75.45,102.22 2.73,4.27 5.79,-2.57 8.45,-3.99 19.72,-20.46 51.85,-15.68 72.92,-0.04 C 251.92,85.79 225.7,51.04 199.87,16.11 184.95,9 167.89,5.68 151.34,6.45 M 88.31,19.43 c -31.11,2.78 -60.39,24.38 -71.7,53.62 20.16,32.47 42.27,64.04 63.07,96.24 0.41,1.33 2.61,2.52 3.21,0.67 16.51,-26.15 43.16,-48.83 75.09,-51.22 10.68,-0.16 21.56,2.68 30.27,9.03 2.11,2.51 1.34,-1.03 0.54,-1.54 -24.03,-32.34 -47.98,-64.74 -72,-97.08 -6.98,-8.01 -18.23,-10.56 -28.48,-9.72 z"
         inkscape:connector-curvature="0"
         style="opacity:1;fill:#000000;stroke:#ffffff;stroke-opacity:1" />
    </g>
    <path
       style="fill:#ffffff;fill-opacity:1;stroke:#ffffff;stroke-width:0.03872635;stroke-opacity:1"
       d="m 115.40806,113.3175 c -0.0219,-0.0156 -0.16001,-0.18529 -0.30692,-0.37699 -0.14691,-0.19169 -0.5211,-0.602 -0.83153,-0.91179 -1.45749,-1.45449 -3.11795,-2.31952 -4.94461,-2.57595 -1.03673,-0.14553 -2.24891,0.0733 -3.04097,0.54908 -0.25146,0.15104 -0.26618,0.15455 -0.26556,0.0632 2.5e-4,-0.0373 1.43803,-1.74076 3.19507,-3.78552 2.6089,-3.03612 3.24153,-3.75126 3.4505,-3.90054 0.60399,-0.43149 1.51685,-0.61225 2.4944,-0.49393 2.5523,0.30893 4.9081,1.81174 5.88459,3.75389 l 0.14809,0.29454 -0.19871,0.26983 c -0.71959,0.97721 -1.8658,2.49008 -3.05049,4.02631 -0.75557,0.97979 -1.59441,2.07111 -1.86409,2.42517 -0.40643,0.53359 -0.5546,0.698 -0.62344,0.69173 -0.004,-2.6e-4 -0.0244,-0.0134 -0.0463,-0.029 z"
       id="path4775"
       inkscape:connector-curvature="0" />
    <path
       style="fill:#ffffff;fill-opacity:1;stroke:#ffffff;stroke-width:0.03872635;stroke-opacity:1"
       d="m 104.99639,109.79398 c -0.89609,-0.78799 -1.59847,-1.10189 -2.72012,-1.2156 -1.10807,-0.11234 -2.509837,0.20308 -3.558571,0.80073 -0.16804,0.0958 -0.317697,0.16947 -0.332577,0.16379 -0.0696,-0.0266 6.576148,-7.81315 6.773858,-7.93675 0.2866,-0.17918 1.51489,-0.51249 2.33824,-0.63452 0.66344,-0.0983 1.79289,-0.11689 2.29545,-0.0377 0.77389,0.1219 1.41803,0.35508 1.8213,0.65932 0.19699,0.14862 0.48408,0.47094 0.48408,0.54349 0,0.0494 -1.27381,1.55587 -3.48663,4.12347 -0.92701,1.07563 -2.00564,2.33037 -2.39695,2.78832 -0.39132,0.45793 -0.73835,0.8544 -0.77119,0.88102 -0.11007,0.0893 -0.23399,0.0517 -0.44689,-0.13554 z"
       id="path4777"
       inkscape:connector-curvature="0" />
  </g>
</svg>
