<?xml version="1.0" encoding="UTF-8" standalone="no"?>
<!-- Created with Inkscape (http://www.inkscape.org/) -->

<svg
   width="41.641182mm"
   height="52.634048mm"
   viewBox="0 0 41.641182 52.634048"
   version="1.1"
   id="svg434"
   inkscape:version="1.3 (0e150ed6c4, 2023-07-21)"
   sodipodi:docname="logoSymbol.svg"
   xml:space="preserve"
   xmlns:inkscape="http://www.inkscape.org/namespaces/inkscape"
   xmlns:sodipodi="http://sodipodi.sourceforge.net/DTD/sodipodi-0.dtd"
   xmlns="http://www.w3.org/2000/svg"
   xmlns:svg="http://www.w3.org/2000/svg"
   xmlns:i="http://ns.adobe.com/AdobeIllustrator/10.0/"><sodipodi:namedview
     id="namedview436"
     pagecolor="#ffffff"
     bordercolor="#000000"
     borderopacity="0.25"
     inkscape:showpageshadow="2"
     inkscape:pageopacity="0.0"
     inkscape:pagecheckerboard="0"
     inkscape:deskcolor="#d1d1d1"
     inkscape:document-units="mm"
     showgrid="false"
     inkscape:zoom="2.5320056"
     inkscape:cx="76.224159"
     inkscape:cy="115.91601"
     inkscape:window-width="1920"
     inkscape:window-height="979"
     inkscape:window-x="0"
     inkscape:window-y="0"
     inkscape:window-maximized="1"
     inkscape:current-layer="layer1" /><defs
     id="defs431" /><g
     inkscape:label="Layer 1"
     inkscape:groupmode="layer"
     id="layer1"
     transform="translate(-81.09958,-64.178131)"><polygon
       transform="matrix(0.4057632,0,0,0.42580491,80.643533,64.111385)"
       points="65.48,25.39 65.48,47.29 84.46,58.25 103.43,47.29 103.43,25.39 84.46,14.42 "
       id="polygon80"
       style="overflow:visible;color-interpolation-filters:sRGB;fill:#101115;stroke:#ffffff;stroke-width:0.636533;stroke-miterlimit:4;stroke-dasharray:none;stroke-opacity:1" /><path
       d="m 81.231893,71.277682 0.004,13.885494 11.458756,6.94488 11.458751,-6.94488 V 71.273424 L 92.690592,64.332803 Z m 3.07974,1.865025 8.379009,-5.079852 8.379008,5.075594 0.004,10.155447 -8.383066,5.07559 -8.379011,-5.07133 z"
       id="path82"
       style="overflow:visible;color-interpolation-filters:sRGB;fill:#101115;stroke:#ffffff;stroke-width:0.264583;stroke-miterlimit:4;stroke-dasharray:none;stroke-opacity:1" /><polygon
       transform="matrix(0.4057632,0,0,0.42580491,80.643533,64.111385)"
       points="12.68,103.92 12.68,66.08 28.66,75.3 63.23,55.35 63.23,55.16 80.18,64.94 80.19,103.92 46.43,123.4 "
       id="polygon84"
       style="overflow:visible;color-interpolation-filters:sRGB;fill:#94b17b;stroke:#ffffff;stroke-width:0.636533;stroke-miterlimit:4;stroke-dasharray:none;stroke-opacity:1" /><g
       style="overflow:visible"
       id="g1"
       transform="matrix(0.04747214,0,0,0.04747214,99.127186,91.262168)"><g
         clip-rule="evenodd"
         fill-rule="evenodd"
         id="g33"><path
           d="m 489.51,59.603 c 0.469,2.628 0.145,4.536 -0.973,6.012 -1.188,1.404 -3.131,2.196 -5.975,2.52 -0.145,9.504 -0.361,18.936 -0.648,28.692 -0.432,9.648 -0.576,7.056 -1.26,29.304 -0.684,22.536 -1.98,76.932 -2.52,103.61 -0.648,26.388 -0.541,29.952 -0.938,53.604 -0.539,23.688 -1.295,69.156 -1.584,86.832 -0.252,17.208 -0.072,9.864 0,16.992 -0.107,7.092 0.721,20.34 -0.287,25.848 -1.008,5.437 -1.764,4.464 -6.012,6.948 -4.572,2.483 -14.041,5.292 -20.484,7.884 -6.443,2.448 -7.74,2.952 -17.641,6.948 -10.152,3.996 -27.504,10.62 -41.939,16.38 -14.4,5.544 -23.221,9.18 -43.813,17.028 -20.879,7.848 -54.9,19.943 -79.416,29.628 -24.479,9.54 -51.875,21.6 -66.204,27.432 -14.328,5.652 -12.96,6.336 -19.224,6.624 -6.372,0.072 -11.232,-2.304 -18.612,-5.04 -7.56,-2.771 -16.776,-7.02 -25.848,-10.8 -9.108,-3.853 -16.164,-6.948 -28.368,-11.664 -12.456,-4.824 -32.508,-12.564 -44.748,-16.704 -12.204,-4.068 -21.456,-6.048 -27.756,-7.884 -6.408,-1.98 -7.92,-2.376 -10.08,-4.104 -2.16,-1.907 -2.412,-3.204 -2.844,-6.947 -0.648,-3.889 -0.432,-6.696 -0.612,-15.769 -0.288,-9.252 -0.36,-12.744 -0.648,-38.664 -0.432,-26.279 -0.576,-83.628 -1.26,-116.64 -0.576,-32.976 -2.196,-58.536 -2.52,-79.74 -0.54,-21.24 -0.54,-36.468 -0.288,-46.656 -3.096,0.18 -5.256,-0.612 -6.624,-2.52 C 8.98,166.813 9.196,164.653 8.8,159.937 8.296,155.113 8.116,148.597 7.864,140.389 7.612,132.001 7.504,122.245 7.54,110.437 c -0.864,-1.836 -1.764,-3.096 -2.844,-3.78 -1.08,-0.756 -2.34,-0.936 -3.636,-0.54 -1.296,-2.556 -1.44,-5.076 -0.288,-7.164 1.08,-2.196 -0.972,-3.132 6.912,-5.868 7.812,-2.808 16.344,-3.996 40.032,-10.764 23.724,-6.948 62.604,-18.72 101.23,-30.168 38.664,-11.556 100.08,-29.988 128.7,-38.376 28.26,-8.46 31.139,-9.54 40.283,-11.7 9,-2.196 3.852,-2.952 13.428,-1.152 9.504,1.764 28.441,7.74 43.201,11.664 14.652,3.78 29.771,7.344 44.387,11.124 14.438,3.744 31.32,8.136 42.049,11.088 10.691,2.736 16.271,4.032 21.6,5.832 5.148,1.656 8.172,1.548 9.359,4.68 1.15,3.163 0.29,7.879 -2.45,14.287 z"
           i:knockout="Off"
           fill="#5f6328"
           id="path1" /><path
           d="m 312.07,5.243 c -0.109,-0.54 0,0.936 1.008,1.512 0.828,0.576 0.324,0.612 4.32,1.764 3.996,1.008 10.871,2.34 19.656,4.536 8.818,2.088 20.664,4.968 32.328,8.064 11.482,2.952 24.264,6.66 36.107,9.864 11.664,3.168 24.732,6.66 33.803,9.072 8.893,2.34 15.266,3.708 19.945,4.788 4.607,0.972 3.779,1.26 8.064,1.008 4.283,-0.432 14.58,-3.06 17.424,-3.024 2.734,-0.108 1.799,2.052 -1.008,3.024 -3.025,1.008 -10.08,2.772 -16.164,2.808 -6.049,-0.108 -8.029,-0.612 -19.693,-3.312 -11.951,-2.844 -35.172,-9.288 -50.219,-13.356 -15.084,-4.212 -27.576,-8.1 -38.881,-11.124 -11.375,-2.952 -20.699,-5.04 -28.26,-6.804 -7.561,-1.872 -13.572,-3.204 -16.668,-4.536 -3.1,-1.548 -1.69,-3.852 -1.76,-4.284 z"
           i:knockout="Off"
           fill="#515431"
           id="path2" /><path
           d="m 309.55,38.615 c 2.52,0.468 5.039,1.008 8.1,1.764 2.916,0.648 6.156,2.592 9.576,2.52 3.24,-0.18 5.76,-1.872 10.619,-3.276 4.969,-1.476 14.615,-5.184 18.648,-5.292 3.779,-0.18 5.221,1.116 4.32,4.032 3.24,-0.828 5.039,-1.08 5.543,-0.756 0.504,0.18 0.828,0.792 -2.771,2.52 -3.889,1.656 -13.787,5.688 -19.691,7.812 -5.869,2.052 -10.729,4.104 -15.156,4.788 -4.645,0.612 -9.252,-0.324 -11.881,-1.008 -2.627,-0.828 -4.068,-3.024 -3.779,-3.528 0.252,-0.54 2.771,-0.18 5.076,0.252 2.123,0.288 3.096,2.628 8.064,1.764 4.967,-1.044 16.055,-5.472 21.455,-7.308 5.293,-1.8 8.604,-3.024 10.08,-3.528 0.432,-1.188 0.107,-1.908 -1.26,-2.016 -1.439,-0.288 -2.736,-0.144 -6.805,1.008 -4.283,1.188 -13.5,4.824 -17.928,6.048 -4.463,0.972 -5.473,1.08 -8.316,0.756 -3.059,-0.36 -6.191,-1.656 -9.107,-2.52 -2.916,-0.936 -7.271,-2.412 -8.064,-3.024 -0.87,-0.72 0.31,-1.008 3.27,-1.008 z"
           i:knockout="Off"
           fill="#515431"
           id="path3" /><path
           d="m 310.05,38.615 c -0.072,0.252 3.635,0.54 5.832,1.26 2.123,0.648 4.176,2.268 6.551,2.772 2.268,0.396 3.6,0.72 7.057,0 3.383,-0.9 9.107,-3.204 13.141,-4.536 4.031,-1.332 8.639,-2.52 10.332,-3.276 1.439,-0.792 0.646,-1.944 -1.262,-1.512 -2.016,0.36 -6.479,2.052 -10.332,3.528 -3.924,1.332 -10.115,3.816 -12.887,4.536 -2.809,0.576 -2.16,-0.324 -4.033,-0.756 -2.123,-0.576 -5.328,-1.98 -7.811,-2.268 -2.49,-0.36 -6.48,0 -6.59,0.252 z"
           i:knockout="Off"
           fill="#8f9533"
           id="path4" /><path
           d="m 318.65,51.215 c -2.844,1.404 -9.469,3.132 -19.439,6.588 -9.938,3.348 -28.98,10.188 -39.637,13.86 -10.621,3.564 -17.856,5.76 -24.228,7.848 -6.588,1.98 -11.52,3.636 -14.652,4.536 -3.168,0.828 -3.204,1.08 -4.284,0.756 -1.188,-0.396 -1.476,-2.196 -2.52,-2.772 -1.26,-0.648 -3.528,-0.252 -4.032,-0.756 -0.504,-0.648 0.288,-1.908 1.26,-2.52 0.828,-0.648 2.952,-0.864 4.284,-1.044 1.332,-0.252 0,0.648 3.78,-0.216 3.744,-1.044 8.964,-2.592 18.432,-5.328 9.396,-2.916 27.54,-7.956 37.368,-11.088 9.504,-3.024 14.795,-5.292 20.195,-7.092 5.365,-1.98 8.748,-3.456 12.096,-4.284 3.277,-0.936 5.58,-1.008 7.596,-0.756 1.94,0.18 6.26,0.792 3.77,2.268 z"
           i:knockout="Off"
           fill="#515431"
           id="path5" /><path
           d="m 341.62,45.419 c 2.916,-1.26 9,-2.88 11.846,-4.032 2.664,-1.188 4.031,-1.8 4.535,-2.52 0.432,-0.828 -0.936,-1.512 -2.016,-1.764 -1.225,-0.36 -2.629,-0.324 -5.041,0.252 -2.592,0.684 -6.371,2.232 -9.828,3.528 -3.49,1.152 -7.955,2.88 -10.619,3.528 -2.699,0.468 -3.492,0.144 -5.293,0 -1.871,-0.18 -2.916,-1.044 -6.047,-0.504 -3.313,0.468 -5.328,1.26 -13.393,3.78 -8.244,2.556 -23.867,7.56 -35.064,11.124 -11.303,3.456 -23.399,7.021 -31.571,9.576 -8.244,2.448 -13.32,3.888 -17.172,5.292 -3.816,1.296 -5.688,2.052 -6.048,2.808 -0.576,0.684 -1.836,2.484 3.024,1.512 4.824,-1.116 17.1,-5.256 25.992,-7.848 8.928,-2.664 18.072,-5.076 27.037,-7.812 8.891,-2.88 19.512,-7.02 25.738,-9.108 5.941,-2.124 7.992,-2.844 10.584,-3.528 2.521,-0.828 3.602,-0.792 5.041,-1.008 1.367,-0.252 2.195,-0.468 3.313,-0.252 1.115,0.108 2.34,0.54 3.275,1.008 0.828,0.396 0.576,1.044 2.016,1.26 1.369,0.144 4.465,-0.072 6.805,-0.504 2.303,-0.576 4.859,-1.476 7.092,-2.268 2.14,-0.864 2.83,-1.476 5.81,-2.52 z"
           i:knockout="Off"
           fill="#8f9533"
           id="path6" /><path
           d="m 198.49,70.403 c 4.68,-1.8 23.868,-6.732 39.384,-11.34 15.517,-4.608 48.708,-14.688 52.776,-15.66 3.744,-1.08 -16.381,5.616 -29.809,9.828 -13.572,4.212 -40.248,12.456 -50.724,15.408 -10.55,2.88 -16.24,3.276 -11.63,1.764 z"
           i:knockout="Off"
           fill="#8f9533"
           id="path7" /><path
           d="m 216.41,83.327 c -2.88,0.396 -8.892,2.592 -12.6,3.816 -3.708,1.188 -5.148,1.26 -9.612,3.276 -4.68,1.944 -13.536,6.984 -17.676,8.316 -4.248,1.044 -7.056,-0.216 -7.056,-1.008 0.036,-0.864 3.492,-2.088 7.308,-3.528 3.672,-1.476 13.212,-3.708 15.156,-5.04 1.8,-1.404 -1.404,-3.204 -3.78,-3.312 -2.448,-0.324 -6.084,0.684 -10.368,2.052 -4.464,1.26 -12.816,3.564 -15.624,5.796 -2.844,2.196 -2.484,5.652 -1.008,7.308 1.404,1.476 5.292,2.196 9.324,1.764 3.924,-0.576 9.792,-3.096 14.4,-4.788 4.428,-1.836 6.912,-2.952 12.852,-5.292 6.012,-2.304 19.728,-6.84 22.968,-8.352 3.03,-1.577 -1.5,-1.541 -4.28,-1.001 z"
           i:knockout="Off"
           fill="#515431"
           id="path8" /><path
           d="m 176.02,80.303 c 1.872,-0.9 10.584,-3.312 13.896,-3.78 3.168,-0.432 2.88,-0.144 5.544,1.008 2.556,1.08 9.432,3.816 10.368,5.292 0.792,1.296 -2.952,1.764 -4.824,2.52 -1.944,0.612 -4.104,1.692 -6.048,1.296 -2.016,-0.576 -5.292,-3.096 -5.544,-4.068 -0.288,-0.9 3.744,-0.936 4.032,-1.512 0.288,-0.828 -0.18,-2.772 -2.52,-2.772 -2.556,0.072 -9.612,2.52 -12.132,3.024 -2.56,0.252 -4.69,-0.216 -2.78,-1.008 z"
           i:knockout="Off"
           fill="#515431"
           id="path9" /><path
           d="m 144.23,87.395 c 2.088,0.72 7.74,3.708 10.584,4.536 2.736,0.612 1.656,0.9 6.336,-0.252 4.716,-1.224 17.964,-5.724 21.708,-6.552 3.492,-0.936 1.692,0.72 0,1.512 -1.872,0.756 -6.768,1.764 -10.116,3.024 -3.492,1.044 -6.552,2.592 -9.576,3.528 -2.952,0.792 -5.148,1.62 -7.848,1.512 -2.808,-0.288 -6.264,-1.584 -8.568,-2.772 -2.412,-1.188 -4.608,-3.312 -5.04,-4.032 -0.45,-0.828 0.34,-1.224 2.53,-0.504 z"
           i:knockout="Off"
           fill="#8f9533"
           id="path10" /><path
           d="m 210.37,81.815 c -2.088,0.468 -5.796,1.548 -8.352,2.268 -2.52,0.72 -4.752,2.052 -6.552,2.052 -1.872,-0.108 -3.204,-2.304 -4.284,-2.556 -1.224,-0.252 -2.124,0.288 -2.268,1.044 -0.036,0.576 1.332,1.872 1.764,2.771 0.18,0.828 1.008,1.584 0,2.268 -1.08,0.504 -3.78,0.504 -6.3,1.26 -2.628,0.792 -6.588,2.16 -9.108,3.276 -2.7,0.936 -5.256,1.548 -6.3,2.52 -1.008,0.828 -1.476,2.808 0.252,3.024 1.62,0.144 6.156,-0.72 9.576,-1.764 3.312,-1.26 7.092,-3.636 10.368,-5.04 3.168,-1.368 4.5,-1.944 8.568,-3.276 3.996,-1.476 12.096,-4.176 15.156,-5.328 2.844,-1.188 2.124,-1.26 2.268,-1.764 0.072,-0.648 -0.756,-1.692 -1.512,-1.764 -0.85,-0.179 -1.42,0.433 -3.29,1.009 z"
           i:knockout="Off"
           fill="#8f9533"
           id="path11" /><path
           d="m 160.65,100.5 c -3.636,1.296 -6.624,2.268 -9.36,2.52 -2.736,0.216 -3.528,0.288 -6.804,-0.756 -3.42,-1.224 -11.592,-5.112 -13.14,-5.544 -1.548,-0.432 1.224,1.728 4.032,3.276 2.808,1.476 7.488,5.4 12.384,5.796 4.788,0.252 9.9,-1.044 15.912,-4.032 -1,-0.4 -2.01,-0.83 -3.02,-1.26 z"
           i:knockout="Off"
           fill="#515431"
           id="path12" /><path
           d="m 187.79,133.94 c -6.588,0.54 -11.916,1.62 -15.84,3.096 -3.996,1.512 -6.12,3.096 -7.92,5.868 -1.872,2.736 -2.916,6.048 -3.132,10.332 -4.212,-2.088 -7.308,-3.24 -9.288,-3.456 -2.016,-0.36 -2.196,0.144 -2.772,2.088 -0.684,1.944 -0.972,5.112 -1.008,9.648 -8.424,-2.268 -19.548,-5.436 -33.804,-9.648 -14.436,-4.392 -38.628,-11.88 -51.336,-15.516 -12.744,-3.6 -22.212,-5.832 -24.12,-5.868 -1.836,-0.072 3.492,1.98 13.068,5.184 9.54,3.06 26.568,8.46 43.452,13.428 16.812,5.004 35.28,10.224 56.52,16.2 -0.9,-4.104 -1.116,-6.516 -0.36,-7.236 0.684,-0.828 3.672,-0.828 4.5,2.772 0.72,3.636 0.72,10.944 0,18.612 -0.828,7.632 -3.492,19.44 -4.5,26.532 -1.152,6.984 -1.872,13.644 -1.728,14.832 0.144,0.936 1.044,-2.916 2.412,-8.64 1.26,-5.76 3.816,-17.82 5.184,-25.488 1.224,-7.812 2.304,-15.192 2.412,-20.34 0.036,-5.148 -0.648,-8.352 -2.052,-10.008 1.98,-0.108 4.176,0.072 6.192,0.684 2.052,0.54 4.536,-0.756 6.192,2.772 1.512,3.528 2.412,7.56 3.096,17.928 0.54,10.224 0.216,18.864 0.684,43.416 0.396,24.768 1.548,72.396 2.088,103.03 0.504,30.42 0.9,52.308 1.044,78.156 0.036,25.739 -0.54,55.728 -0.36,75.384 0.18,19.584 0.684,41.076 1.368,41.004 0.576,-0.504 1.548,-24.769 2.088,-43.092 0.432,-18.576 0.432,-44.568 0.684,-66.168 0.216,-21.492 0.864,-35.316 0.684,-62.028 -0.396,-27.108 -1.548,-71.424 -2.052,-97.956 -0.54,-26.46 -0.648,-44.568 -0.72,-59.184 -0.144,-14.508 0.18,-21.96 0,-27.9 -0.252,-5.976 -1.044,-6.012 -1.692,-8.28 -0.72,-2.52 -1.692,-5.184 -2.772,-6.192 -1.188,-1.044 -2.664,-0.9 -4.14,0 -1.584,0.828 -3.888,4.428 -4.824,4.824 -1.116,0.18 -1.404,-1.368 -1.008,-3.132 0.36,-1.836 1.152,-5.22 3.78,-7.236 2.52,-1.98 8.172,-3.42 11.7,-4.464 3.528,-1.044 7.884,-1.116 9.324,-1.728 1.31,-0.61 1.1,-1.4 -1.03,-2.2 z"
           i:knockout="Off"
           fill="#515431"
           id="path13" /><path
           d="m 145.39,221.32 c 0.756,-4.428 1.44,-9.396 2.448,-15.192 1.008,-5.904 2.736,-14.328 3.096,-19.296 0.144,-4.86 1.116,-7.632 -2.088,-9.972 -3.348,-2.484 -10.368,-2.592 -17.568,-4.5 -7.164,-2.124 -9.648,-2.412 -25.524,-7.236 -16.236,-4.824 -39.168,-11.808 -70.308,-21.348 0.648,-3.96 0.144,-7.164 -1.368,-9.756 -1.584,-2.736 -7.236,-5.472 -7.92,-5.832 -0.828,-0.324 2.268,1.404 3.456,3.78 1.116,2.16 3.78,7.452 3.42,9.648 -0.504,2.052 -4.644,3.024 -6.192,3.456 -1.656,0.396 -2.484,1.08 -3.456,-0.72 -1.044,-1.944 -1.296,-7.056 -2.412,-10.332 -1.188,-3.348 -3.42,-8.1 -4.464,-8.964 -1.188,-0.792 -2.484,0.54 -2.088,4.14 0.396,3.564 3.564,12.852 4.5,16.884 0.792,3.78 -0.396,5.58 0.324,6.228 0.576,0.576 1.728,-1.944 3.456,-2.412 1.62,-0.684 3.384,-1.188 6.552,-0.684 3.024,0.468 2.088,1.044 12.06,4.104 10.116,3.06 33.192,9.9 47.556,14.148 14.22,4.176 27.972,7.74 37.224,10.692 8.892,2.808 13.824,3.672 16.884,6.192 2.988,2.376 1.332,5.508 1.404,8.28 0,2.736 -0.396,5.976 -1.044,7.92 -0.792,1.764 -2.988,1.224 -3.096,3.096 -0.144,1.872 2.088,4.932 2.412,7.92 0.18,2.772 -1.188,4.86 -1.044,9.324 0.108,4.608 1.008,15.84 1.728,17.568 0.54,1.368 1.296,-5.328 1.728,-8.28 0.28,-2.89 0.39,-5.84 0.32,-8.86 z"
           i:knockout="Off"
           fill="#515431"
           id="path14" /><path
           d="m 132.64,208.46 c 1.044,-0.288 3.888,-1.224 4.5,-3.096 0.468,-2.016 0,-5.724 -1.404,-7.92 -1.404,-2.16 0.216,-2.052 -7.236,-4.824 -7.812,-3.024 -25.236,-8.208 -38.232,-12.06 -13.104,-3.852 -29.052,-7.812 -38.952,-10.368 -9.792,-2.592 -15.3,-4.572 -19.296,-4.824 -4.068,-0.288 -3.924,0.936 -4.824,3.132 -0.972,2.052 -1.404,8.856 -0.72,9.288 0.684,0.252 3.132,-5.724 4.824,-7.236 1.548,-1.692 1.404,-2.376 4.824,-2.052 3.384,0.324 6.336,1.512 15.516,4.14 9.252,2.556 28.008,7.704 39.312,11.016 11.196,3.168 20.592,6.156 27.216,8.28 6.3,1.944 8.82,2.808 11.052,4.14 2.052,1.332 1.764,2.232 2.052,4.104 0.252,1.728 -0.648,5.112 -0.36,6.552 0.11,1.37 0.69,1.95 1.73,1.73 z"
           i:knockout="Off"
           fill="#515431"
           id="path15" /><path
           d="m 17.55,168.83 c 0.396,-3.492 0.504,-6.984 0.324,-11.016 -0.324,-4.068 -0.9,-8.136 -1.728,-12.744 -0.9,-4.644 -3.024,-10.728 -3.456,-14.508 -0.54,-3.888 -0.144,-5.94 0.36,-8.244 0.396,-2.34 2.952,-3.708 2.412,-5.508 -0.612,-1.872 -2.52,-3.672 -5.868,-5.544 -0.18,10.296 -0.288,18.9 -0.324,26.208 -0.18,7.2 -0.18,12.168 0,17.244 0.108,5.04 -0.036,10.656 1.368,13.104 1.368,2.38 3.672,2.66 6.912,1.01 z"
           i:knockout="Off"
           fill="#515431"
           id="path16" /><path
           d="m 154.71,142.91 c -6.552,-1.836 -17.1,-4.644 -32.04,-8.964 -15.048,-4.356 -41.004,-11.52 -56.88,-16.2 -15.912,-4.68 -27.612,-8.532 -37.584,-11.7 C 18.198,102.806 9.558,100.466 6.174,98.45 2.79,96.326 4.518,93.698 7.866,93.626 c 3.24,-0.216 5.004,0.647 17.928,4.14 13.032,3.492 41.4,11.664 59.292,16.884 17.712,5.112 33.948,10.08 46.188,13.788 11.988,3.528 20.412,5.724 25.848,7.56 5.292,1.656 5.904,1.908 6.552,3.132 0.504,1.188 -1.26,3.78 -2.772,4.464 -1.47,0.69 0.07,0.83 -6.19,-0.68 z"
           i:knockout="Off"
           fill="#515431"
           id="path17" /><path
           d="m 150.21,135.31 c -5.796,-1.728 -16.092,-4.572 -26.856,-7.56 -10.872,-3.168 -22.932,-6.552 -37.584,-10.692 -14.868,-4.14 -37.944,-10.224 -50.328,-13.788 -12.384,-3.744 -18.9,-6.372 -23.436,-7.596 -4.572,-1.188 -5.436,-0.252 -4.14,0.72 1.188,0.828 3.456,2.16 11.376,4.824 7.92,2.664 24.264,7.488 35.856,11.016 11.376,3.384 18.684,5.184 32.76,9.288 14.184,3.96 39.348,11.448 51.336,14.832 11.808,3.204 16.2,4.932 19.296,5.184 2.916,0.288 0,-2.484 -1.368,-3.456 -1.47,-1.15 -1.33,-1 -6.91,-2.77 z"
           i:knockout="Off"
           fill="#8f9533"
           id="path18" /><path
           d="m 25.902,177.29 c 0.396,-1.44 1.836,-3.78 3.204,-5.22 1.26,-1.656 2.664,-3.276 4.212,-3.888 1.404,-0.648 1.44,-0.252 4.392,0.36 2.916,0.576 7.56,1.692 12.816,3.204 5.148,1.44 12.096,3.456 18.072,5.22 5.868,1.584 11.232,2.772 17.208,4.536 5.904,1.8 12.672,3.708 18.216,5.58 5.4,1.656 10.188,3.132 14.508,4.572 4.248,1.26 8.748,2.556 10.98,3.888 2.16,1.332 1.44,2.736 1.872,4.212 0.288,1.368 0.144,2.952 0,4.212 -0.252,1.152 -0.108,2.808 -1.368,3.024 -1.332,0.18 -5.22,-0.108 -6.408,-1.836 -1.332,-1.944 1.656,-6.552 -1.188,-8.964 -2.916,-2.484 -8.208,-2.988 -16.02,-5.4 -7.92,-2.484 -21.204,-6.552 -30.708,-9.288 -9.612,-2.916 -19.62,-5.868 -25.992,-7.74 -6.372,-1.908 -9.144,-3.312 -11.808,-3.384 -2.772,-0.216 -3.06,1.224 -4.068,2.52 -1.08,1.224 -0.72,3.744 -1.836,5.076 -1.224,1.26 -4.068,2.376 -5.076,2.376 -1,-0.22 -1.432,-1.69 -1,-3.06 z"
           i:knockout="Off"
           fill="#8f9533"
           id="path19" /><path
           d="m 157.12,196.48 c 0.216,-1.836 0.72,-4.356 1.368,-7.56 0.612,-3.348 1.548,-10.044 2.412,-11.736 0.72,-1.728 1.008,2.592 2.412,1.728 1.404,-1.044 5.004,-7.992 6.228,-7.236 1.008,0.756 1.044,5.148 0.684,12.06 -0.36,6.912 -0.828,20.628 -2.772,28.944 -2.16,8.136 -7.668,12.42 -9.288,19.656 -1.656,7.092 -0.432,12.6 -0.36,22.752 0.036,10.08 0.432,29.016 0.36,37.224 -0.216,8.028 0.324,8.064 -1.728,11.376 -2.232,3.24 -9.72,7.668 -11.376,8.28 -1.728,0.54 -0.18,-3.061 1.044,-4.824 1.044,-1.764 4.608,-2.52 5.832,-5.868 1.08,-3.6 1.224,-8.819 1.404,-14.832 0.144,-6.048 -0.108,-10.296 -0.36,-20.664 -0.36,-10.512 -0.72,-23.976 -1.368,-41.364 l 3.78,-13.788 c 0.828,-3.168 1.404,-5.976 1.728,-8.28 0.27,-2.42 0.27,-4.33 0.02,-5.87 z"
           i:knockout="Off"
           fill="#515431"
           id="path20" /><path
           d="m 136.78,210.98 c -0.396,3.78 0.072,13.536 0,24.804 -0.216,11.232 -1.08,30.672 -1.044,42.373 -0.036,11.699 0.36,21.888 1.044,27.252 0.576,5.292 2.196,7.451 2.772,4.14 0.396,-3.6 0.18,-14.976 0.324,-24.84 0.108,-10.008 0.612,-24.768 0.684,-34.128 -0.036,-9.468 -0.144,-15.408 -0.324,-21.708 -0.252,-6.372 -0.504,-12.852 -1.044,-15.84 -0.72,-3.08 -1.94,-5.85 -2.41,-2.04 z"
           i:knockout="Off"
           fill="#515431"
           id="path21" /><path
           d="m 72.306,255.73 c -0.252,2.808 0.288,5.148 1.62,7.164 1.26,2.088 3.96,4.104 6.3,5.076 2.232,0.756 5.868,1.368 7.56,-0.252 1.728,-1.872 2.736,-6.336 2.448,-9.9 -0.54,-3.564 -2.376,-8.64 -4.932,-10.764 -2.7,-2.052 -8.064,-3.132 -10.26,-1.584 -2.232,1.5 -2.592,7.19 -2.736,10.25 z"
           i:knockout="Off"
           fill="#8f9533"
           id="path22" /><path
           d="m 74.286,256.09 c -0.252,2.304 0.216,3.96 1.26,5.652 1.044,1.512 3.024,3.348 4.968,3.996 1.836,0.576 4.464,1.116 5.94,-0.18 1.332,-1.476 2.124,-5.04 1.944,-7.776 -0.36,-2.844 -1.98,-6.876 -3.888,-8.496 -2.088,-1.728 -6.408,-2.376 -8.1,-1.26 -1.764,1.16 -2.016,5.7 -2.124,8.07 z"
           i:knockout="Off"
           fill="#515431"
           id="path23" /><path
           d="M 27.882,272.18 C 27.126,266.636 26.55,251.3 26.154,239.096 25.65,226.784 25.47,208.856 25.47,199.748 c -0.072,-9.18 0.108,-14.076 0.684,-14.544 0.468,-0.432 2.016,3.78 2.412,12.24 0.252,8.532 -0.648,25.848 -0.36,38.34 0.288,12.276 2.088,28.872 2.088,35.064 -0.072,6.05 -1.8,6.59 -2.412,1.33 z"
           i:knockout="Off"
           fill="#8f9533"
           id="path24" /><path
           d="m 127.49,226.57 c -0.504,-2.7 -3.384,-7.56 -5.184,-10.008 -1.872,-2.484 -4.572,-2.268 -5.868,-4.5 -1.296,-2.304 1.908,-5.94 -2.052,-8.964 -4.284,-3.06 -12.204,-6.156 -22.392,-9.288 -10.224,-3.24 -36.756,-10.116 -37.944,-9.648 -1.008,0.504 22.14,8.352 31.392,12.42 9.18,3.96 18.396,7.956 23.076,11.016 4.428,2.916 2.844,4.356 4.14,6.552 1.188,2.088 1.8,3.132 3.78,6.192 2.052,3.024 6.3,10.548 8.28,11.736 1.84,0.9 3.13,-2.88 2.77,-5.51 z"
           i:knockout="Off"
           fill="#8f9533"
           id="path25" /><path
           d="m 48.762,310.49 c -1.188,3.528 -2.16,9.036 -3.06,14.977 -0.972,5.796 -2.232,15.156 -2.52,20.016 -0.324,4.752 -0.828,6.3 0.72,8.82 1.332,2.484 2.52,3.816 8.28,6.336 5.868,2.521 17.82,5.724 26.532,8.64 8.568,2.845 17.244,5.437 24.516,7.92 7.2,2.341 15.408,5.545 18.216,6.156 2.592,0.468 1.98,-1.404 -2.52,-3.275 -4.68,-1.908 -15.552,-5.112 -24.696,-8.101 -9.288,-3.168 -22.32,-7.056 -29.952,-10.296 -7.668,-3.24 -13.212,-3.6 -15.516,-9 -2.268,-5.616 1.116,-18.072 1.8,-23.616 0.468,-5.472 0.9,-6.084 1.44,-9.036 0.432,-3.132 0.756,-7.668 1.656,-9.18 0.9,-1.584 2.484,-0.252 3.78,-0.18 1.188,0.107 3.348,0.972 3.42,0.359 -0.072,-0.899 -2.088,-3.924 -3.42,-5.04 -1.44,-1.331 -3.492,-2.447 -4.896,-1.8 -1.552,0.67 -2.668,2.72 -3.784,6.29 z"
           i:knockout="Off"
           fill="#515431"
           id="path26" /><path
           d="m 43.362,335.18 c -0.504,2.412 -1.476,6.192 -1.8,9.396 -0.468,3.023 -0.864,6.804 -0.36,9 0.36,2.124 0.576,2.304 3.42,4.14 2.88,1.836 7.416,4.356 13.896,6.876 6.48,2.448 17.028,5.256 24.696,7.74 7.524,2.412 14.364,4.644 20.376,6.84 5.94,2.196 11.196,4.968 14.796,5.796 3.528,0.684 4.32,-0.108 6.12,-1.979 1.548,-1.908 2.34,-4.465 3.78,-9.757 1.404,-5.579 3.024,-14.939 4.716,-22.535 1.62,-7.597 5.076,-20.7 5.22,-22.356 0,-1.584 -3.024,6.876 -4.5,12.6 -1.584,5.544 -3.024,15.336 -4.32,20.916 -1.512,5.473 -2.592,8.965 -3.636,12.276 -0.936,3.276 -1.08,5.94 -1.98,7.416 -1.008,1.296 -1.296,1.116 -3.78,0.72 -2.664,-0.468 -6.624,-1.836 -11.196,-3.275 -4.608,-1.549 -9.936,-3.637 -15.84,-5.58 -6.048,-2.124 -13.824,-4.32 -19.836,-6.3 -6.192,-1.98 -12.024,-3.78 -16.236,-5.257 -4.248,-1.439 -6.336,-2.124 -8.496,-3.42 -2.232,-1.476 -3.492,-2.987 -4.32,-4.68 -0.864,-1.656 -0.828,-3.313 -0.72,-5.4 -0.036,-2.304 0.54,-4.68 0.9,-7.956 0.36,-3.491 1.152,-10.332 1.26,-12.06 -0.108,-1.62 -0.9,0.864 -1.26,2.16 -0.324,1.12 -0.576,2.31 -0.9,4.68 z"
           i:knockout="Off"
           fill="#8f9533"
           id="path27" /><path
           d="m 124.69,382.27 c 0.072,0.54 1.548,0.433 2.34,-0.72 0.72,-1.224 1.332,-1.908 2.52,-6.336 1.188,-4.608 2.952,-13.68 4.716,-20.556 1.62,-6.984 4.104,-17.641 5.22,-20.736 0.936,-3.204 0.756,0.504 1.26,1.979 0.468,1.477 1.404,7.524 1.98,6.876 0.504,-0.827 0.684,-7.056 1.08,-11.195 0.396,-4.141 1.116,-10.729 0.9,-13.536 -0.36,-2.844 -0.792,-2.376 -3.24,-3.601 -2.7,-1.403 -8.172,-3.348 -12.24,-4.319 -4.284,-1.116 -9.612,-2.628 -12.096,-1.62 -2.412,1.008 -2.016,4.608 -2.16,7.74 -0.216,3.06 0.252,11.016 0.72,10.655 0.252,-0.647 0.36,-10.691 1.44,-13.176 1.008,-2.376 2.268,-1.439 5.04,-1.08 2.7,0.216 8.388,1.765 11.376,2.7 2.88,0.756 5.112,1.116 6.3,2.34 1.116,1.044 0.828,2.557 0.54,4.681 -0.504,2.195 -1.872,5.363 -2.7,8.136 -0.9,2.592 -1.476,4.644 -2.16,7.56 -0.756,2.736 -1.476,5.688 -2.16,9.396 -0.756,3.636 -1.836,8.424 -2.556,12.42 -0.792,3.924 -1.62,7.632 -2.34,10.836 -0.864,2.988 -1.692,5.399 -2.34,7.38 -0.76,1.9 -1.52,3.52 -1.44,4.17 z"
           i:knockout="Off"
           fill="#515431"
           id="path28" /><path
           d="m 146.5,349.26 c 0.612,1.368 1.152,5.976 1.62,9.54 0.324,3.563 2.448,7.776 0.54,11.376 -2.124,3.528 -10.152,8.964 -12.42,9.36 -2.232,0.071 -2.412,-5.688 -1.08,-8.101 1.296,-2.376 6.804,-2.7 8.46,-6.12 1.332,-3.6 0.072,-12.096 0.54,-14.796 0.4,-2.7 1.69,-2.7 2.34,-1.26 z"
           i:knockout="Off"
           fill="#515431"
           id="path29" /><path
           d="m 110.11,318.41 c -2.196,-1.656 -7.56,-2.412 -11.376,-3.24 -3.852,-0.973 -10.08,-2.592 -11.196,-2.34 -1.224,0.216 0.612,1.512 4.536,3.6 3.852,1.98 15.66,7.848 18.756,8.316 2.8,0.17 1.4,-4.72 -0.72,-6.34 z"
           i:knockout="Off"
           fill="#8f9533"
           id="path30" /><path
           d="m 214.69,128.98 c -7.776,2.448 -9.396,2.916 -14.148,4.464 -4.968,1.584 -11.016,2.916 -14.796,4.824 -3.78,1.764 -7.236,3.672 -7.596,5.868 -0.396,2.124 -5.652,8.568 5.184,6.552 10.872,-2.196 36.504,-12.384 59.256,-19.332 22.717,-6.984 55.26,-16.524 75.852,-22.392 20.34,-5.94 30.529,-8.64 45.828,-13.104 15.301,-4.608 29.197,-9.108 45.145,-13.788 15.695,-4.716 36.684,-10.44 48.959,-14.112 12.24,-3.672 19.08,-5.94 24.121,-7.92 4.896,-2.124 4.463,-3.024 5.508,-4.5 1.008,-1.728 1.115,-4.032 0.324,-4.824 -1.008,-0.828 1.908,-1.116 -5.832,0.684 -7.957,1.872 -24.012,5.796 -40.68,10.368 -16.74,4.464 -38.125,10.188 -58.609,16.2 -20.447,5.868 -40.607,12.528 -63.395,19.296 -23.041,6.768 -55.369,15.624 -73.081,21.024 -17.67,5.22 -24.33,8.14 -32.03,10.7 z"
           i:knockout="Off"
           fill="#515431"
           id="path31" /><path
           d="m 184.34,142.73 c -2.916,2.268 -5.616,5.22 -1.728,4.5 3.96,-0.792 6.84,-2.268 24.48,-7.92 17.82,-5.724 52.523,-16.812 80.316,-25.164 27.756,-8.352 59.76,-17.244 84.779,-24.48 24.949,-7.236 47.844,-14.364 64.441,-19.296 16.523,-4.932 26.314,-7.632 34.127,-10.008 7.703,-2.34 10.26,-3.06 12.061,-4.14 1.799,-1.08 6.551,-4.068 -1.369,-2.412 -8.063,1.692 -27.828,7.38 -46.188,12.42 -18.396,5.04 -38.016,10.224 -63.072,17.568 -25.127,7.38 -53.244,15.768 -85.824,25.524 -32.58,9.72 -29.447,8.784 -44.459,13.428 -15.012,4.644 -30.744,9.828 -45.144,14.832 -14.41,4.99 -9.48,2.91 -12.43,5.14 z"
           i:knockout="Off"
           fill="#8f9533"
           id="path32" /><path
           d="m 182.68,208.61 c 0.432,-0.684 1.188,3.924 3.816,4.536 2.592,0.576 1.188,1.908 11.916,-1.008 10.692,-3.024 31.14,-10.44 51.768,-16.992 20.557,-6.732 52.309,-15.048 70.813,-22.608 18.396,-7.524 19.729,-11.268 38.844,-22.32 19.08,-11.376 55.008,-32.904 74.592,-44.46 19.477,-11.592 34.92,-20.376 41.617,-23.868 6.479,-3.384 5.219,-1.548 -2.521,3.564 -7.883,5.004 -26.027,15.012 -44.172,26.136 -18.359,11.016 -48.959,29.628 -64.727,39.6 -15.732,9.9 -16.885,13.212 -29.16,19.26 -12.492,5.868 -31.789,11.772 -44.426,16.056 -12.6,4.176 -19.512,5.868 -30.455,9.396 -11.088,3.528 -24.66,8.064 -35.28,11.664 -10.728,3.492 -20.772,7.2 -27.9,8.892 -7.092,1.476 -11.7,1.512 -14.22,0.252 -2.51,-1.33 -1.11,-7.6 -0.5,-8.1 z"
           i:knockout="Off"
           fill="#515431"
           id="path33" /></g></g></g></svg>
