<?xml version="1.0" encoding="UTF-8"?>
<svg width="274" height="282" version="1.1" viewBox="0 0 274 282" xmlns="http://www.w3.org/2000/svg">
 <path d="m125.96 77.111c-2.338 1.174-3.9715 2.653-3.9616 3.1059 0.0323 1.4831 9.1521 18.776 9.6571 18.807 1.0985 0.06845 9.2672-5.0804 9.3429-5.6881 0.32108-2.5787-8.0674-19.38-8.9584-19.33-0.608 0.034-2.9784 1.4298-5.2916 2.6855" fill="#b8b7bc" fill-rule="evenodd"/>
 <path d="m244.45 114.28c-0.74574 1.0293-1.2586 4.8716 4.6722 27.609 3.3244 16.68 0.60851 31.968-5.1305 53.948-1.7583 4.255 5.7586 4.6966 11.283 2.029 3.7276-3.2212 6.7026-80.688 0.92565-84.355-2.078-1.319-11.204-0.65479-11.75 0.76821m10.375 99.235c-0.251 0.251-5.8289 1.0065-12.214 2.3585-27.739 5.874-38.607 17.056-31.782 45.548 1.784 13.934 38.74 20.557 49.736 9.5607 4.394-4.394 6.234-38.843 1.3352-41.571 0.34389-11.196-5.0792-10.046-4.898-11.298 0.64617-4.4647-1.012-5.764-2.177-4.599" fill="#7ab9c8" fill-rule="evenodd"/>
 <path d="m176.86 227.2c-3.6584-1.5473-3.6235-7.2004-0.47395-10.787 1.5424-1.7567 3.437-1.866 5.5702-0.0867 2.4173 2.0162 3.6095 3.8637 3.7984 6.1415 0.1214 1.464-0.27538 2.4218-0.7243 3.1062-1.5405 2.3511-4.1442 3.3294-6.9475 2.1437z" fill="#f59e3d" stroke-width=".36293"/>
 <g fill-rule="evenodd">
  <path d="m124.56 56.213c-2.1251 4.6595-1.2419 6.8399-0.2243 11.168 1.2148 5.1672 1.9902 6.2346 5.1329 4.7971 1.9582-0.79614 3.9934-3.0352 10.586 11.025 5.486 11.7 4.9205 10.876 2.0841 13.282-1.3674 1.1602-4.0026 2.0079-1.7673 7.5061 2.7444 6.7505 13.763 21.962 15.252 19.718 4.0293-6.0751 2.8172-12.36-3.2723-22.203-1.7529-3.3931-7.9551-15.534-13.616-26.964-10.49-21.183-11.869-23.442-14.006-18.75m-63.434 49.885c-13.054 1.698-25 5.2638-27.42 9.3879-5.0122 9.1066 36.73 16.7 67.782 12.914 13.476-1.669 12.582 0.31588 11.901 20.273-0.787 6.75 0.32247 7.8114 3.9195 7.8114 4.045 0 4.6295-4.1314 2.6375-7.8534-0.58646-5.531-1.1815-13.993 0.75452-18.05 2.5452-5.09 1.5883-5.3852 6.8915-8.584 6.771-3.995 3.2427-9.2261-6.8143-12.459-11.22-3.6068-28.647-6.618-29.304-4.779-3.5032-0.51467-5.7544-0.41498-6.8287-0.2393-1.9109-0.12357-10.341-0.15119-20.115 1.1201m-30.11 24.16c-9.306 8.091 20.428 15.626 54.816 14.226 24.362 0.52209 23.901-2.7455 23.537-9.0035-0.16891-9.846-0.22518-4.1014-20.824-3.8826-14.549 0.15459-32.698-0.39854-44.586-3.4385-4.102-1.05-7.976-1.2772-8.132-1.2772-0.157 0-2.3888 0.43198-3.652 2.361m0 15c-10.623 9.236 31.862 19.711 66.076 15.271 8.781-1.14 10.549 0.83647 11.086-5.9435 0.441-5.563-2.3772-8.8192-6.9442-8.0672-15.669 0.90991-42.678 1.7941-58.484-2.2479-4.102-1.05-7.9265-1.3733-8.0825-1.3733-0.157 0-2.5288 0.44005-3.652 2.361m158.7 71.547c-3.21 2.525-3.122 5.3356-1.508 9.1736 2.496 5.935 9.2433 8.2063 15.328 1.6753 8.6057-9.4564-5.4044-17.636-13.217-11.49m2.3218 18.984c-1.685 1.243-6.2069 5.8964-11.061 11.115-9.098 6.5156-13.366 13.756-25.817 14.948-5.772 0.553-13.642 1.2464-19.006 1.8634-8.422 0.97-11.046 0.97784-13.094-0.36416-13.951-9.141-22.46-9.3044-20.563 0.98863 1.979 10.743-4.3388 13.569 41.878 13.569 49.43 0 55.484 5.012 53.441-29.055 0.629-16.758-0.45654-17.151-5.1835-13.663" fill="#f59e3d"/>
  <path d="m171.83 8.979c-8.869 2.678-30.886 16.254-39.061 24.087-7.364 7.057-8.296 4.425 23.094 65.277 8.316 16.12 9.114 20.937 4.667 28.157-3.245 5.269 0.64 18.5 5.432 18.5 1.709 0 8.902-5.629 14.542-11.381 6.606-6.737 17.709-15.243 39-29.876 26.597-18.28 25.972-26.959-4.446-61.743-3.608-4.125-8.09-9.975-9.962-13-9.769-15.789-11.346-17.893-14.556-19.416-3.554-1.687-14.007-2.025-18.71-0.605m2.674 46.442c-12.74 5.703-15.622 23.564-5.369 33.268 11.122 10.526 29.593 5.213 33.441-9.619 4.204-16.206-12.765-30.501-28.072-23.649m-0.578 3.853c-13.96 9.407-9.092 30.135 7.399 31.503 18.314 1.518 26.067-21.186 10.757-31.503-4.716-3.178-13.44-3.178-18.156 0m3.394 2.669c-12.978 5.893-8.092 25.068 6.384 25.053 14.667-0.014 18.208-19.819 4.582-25.625-4.22-1.798-5.943-1.708-10.966 0.572m2.072 2.037c-6.623 2.676-8.521 12.041-3.465 17.097 6.648 6.648 18.077 1.713 18.077-7.805 0-6.828-8.046-11.945-14.612-9.292m31.112 62.227c-19.491 6.813-18.968 32.317 0.815 39.737 9.253 3.471 20.348-2.257 24.271-12.531 6.277-16.436-8.877-32.872-25.086-27.206m-16.583 44.432c-3.956 8.565-12.953 30.559-14.343 35.065-1.965 6.372 10.341 8.983 15.539 3.296 4.558-4.987 15.887-4.833 15.887 0.216 0 4.832 4.224-3.699 11.457-23.141 5.494-14.769 6.5682-15.546-2.0406-14.376-6.94 0.576-13.149-1.5586-18.564-6.4516-3.841-3.47-3.841-3.47-7.935 5.392m-79.607 18.111c-0.344 0.963-1.6875 4.3041-2.6745 6.8711-4.5768 7.5086-3.4375 5.0969 36.864 19.267 23.271 8.182 22.369 10.015 25.113 0.33946 2.779-9.799 1.7575-11.789-4.8165-13.617-2.913-0.811-15.796-4.43-28.628-8.042-26.335-7.414-25.017-7.168-25.859-4.818m-25.844 42.65c-15.38 6.7-18.715 42.1-3.966 42.1 8 0 8 0 8.562-6.528 1.439-16.716 12.636-21.648 31.111-13.702 11.149 4.794 31.871 4.871 44.529 0.164 7.961-2.961 17.582-15.402 14.048-18.167-4.882-3.82-86.691-7.175-94.284-3.867" fill="#3f99b3"/>
  <path d="m169.25 5.836c-9.481 3.37-18.75 8.601-32.254 18.201-14.473 10.288-15.485 11.607-15.571 20.283-0.039 4.006-0.887 9.766-1.917 13.03-1.742 5.516-1.755 6.229-0.231 12.5 1.401 5.762 1.425 6.797 0.181 7.751-1.981 1.518 9.18 25.71 11.577 25.093 1.096-0.282 3.646 3.429 8.864 12.899 4.03 7.312 9.308 15.617 11.73 18.454s5.564 7.14 6.983 9.562c3.269 5.577 6.28 6.52 12.544 3.932 1.52-0.628 1.667 1.436 1.746 24.387 0.051 14.586-0.296 25.072-0.83 25.072-0.504 0-6.24-1.531-12.746-3.403-6.507-1.872-20.38-5.508-30.83-8.08-16.287-4.009-25.442-7.2297-25.442-9.0677 0-0.261 7.1717-0.47628 16.009-0.37228 10.872 0.128 16.433-0.177 17.2-0.944 0.623-0.623 2.8882-1.3418 5.01-1.133 3.7567 0.36966 5.673-1.32 10.473-7.346 3.416-4.288 5.11-4.192-73.5-4.173-76.355 0.019-87.86 0.86592-69.613 3.818 4.596 0.731 5.197 1.12 5.711 3.692 0.513 2.566 1.09 2.942 5.364 3.502 2.633 0.345 5.822 1.051 7.085 1.567 1.263 0.517 5.639 0.94 9.724 0.94 7.37 0 7.441 0.025 9.1 3.25 12.078 23.464 33.426 34.546 54.379 28.229 3.025-0.912 6.4-1.678 7.5-1.701 2.233-0.049 61.576 21.479 60.947 22.109-0.22 0.22-10.873-0.155-23.674-0.834-40.034-2.121-54.507-1.963-59.386 0.647-5.469 2.926-13.135 11.591-14.281 16.143-1.919 7.616-2.392 27.014-0.7 28.706 0.852 0.852 1.902 2.179 2.333 2.949 0.655 1.17 13.434 1.51 78.272 2.082 117.53 1.037 106 1.2711 110.63-1.2579 9.437-5.154 8.3584 3.7679 8.3584-81.864 0-93.564 2.213-85.687-24.25-86.3-8.497-0.197-14.75-0.748-14.75-1.299 0-1.845 3.005-6.744 6.893-11.235 7.072-8.171 7.988-17.885 2.733-28.965-3.613-7.617-3.372-8.006 8.361-13.491 10.092-4.717 11.462-5.823 10.048-8.112-0.605-0.978-1.879-0.766-5.658 0.942-9.843 4.449-18.203 6.92-19.192 5.673-0.511-0.644-3.079-4.996-5.706-9.671-2.628-4.675-6.056-10.06-7.619-11.967-3.304-4.031-1.287-6.932 10.89-15.656 3.998-2.865 6.25-5.18 6.25-6.428 0-3.013-1.638-2.415-11.061 4.038-14.11 9.665-13.987 9.662-23.968 0.487-10.995-10.109-19.336-11.751-33.717-6.638m2.572 3.143c-8.869 2.678-30.886 16.254-39.061 24.087-7.364 7.057-8.296 4.425 23.094 65.277 8.316 16.12 9.114 20.937 4.667 28.157-3.245 5.269 0.64 18.5 5.432 18.5 1.709 0 8.902-5.629 14.542-11.381 6.606-6.737 17.709-15.243 39-29.876 26.597-18.28 25.972-26.959-4.446-61.743-3.608-4.125-8.09-9.975-9.962-13-9.769-15.789-11.346-17.893-14.556-19.416-3.554-1.687-14.007-2.025-18.71-0.605m-47.434 47.626c-1.339 3.204-1.419 4.691-0.476 8.872 1.743 7.727 2.295 8.27 6.409 6.308 3.38-1.612 7.391 4.496 14.344 21.846 0.249 0.621-1.153 2.123-3.117 3.337-4.075 2.518-1.614 9.099 7.959 21.282 5.217 6.639 5.9 6.879 7.391 2.601 1.928-5.531 1.22-8.595-4.411-19.087-3.029-5.645-9.477-18.364-14.328-28.264-10.316-21.053-11.452-22.447-13.771-16.895m50.108-1.184c-12.74 5.703-15.622 23.564-5.369 33.268 11.122 10.526 29.593 5.213 33.441-9.619 4.204-16.206-12.765-30.501-28.072-23.649m-0.578 3.853c-13.96 9.407-9.092 30.135 7.399 31.503 18.314 1.518 26.067-21.186 10.757-31.503-4.716-3.178-13.44-3.178-18.156 0m3.394 2.669c-12.978 5.893-8.092 25.068 6.384 25.053 14.667-0.014 18.208-19.819 4.582-25.625-4.22-1.798-5.943-1.708-10.966 0.572m2.072 2.037c-6.623 2.676-8.521 12.041-3.465 17.097 6.648 6.648 18.077 1.713 18.077-7.805 0-6.828-8.046-11.945-14.612-9.292m-52.638 12.712c-2.612 1.455-4.75 3.028-4.75 3.496 0 1.385 9.1981 18.852 9.672 18.812 1.1629-0.09801 9.328-5.064 9.335-5.792 0.012-1.262-8.349-19.209-8.937-19.184-0.314 0.014-2.707 1.214-5.32 2.668m-63.75 25.891c-1.375 0.242-5.2 0.909-8.5 1.481-19.772 3.429-28.302 10.581-20.854 17.484 2.646 2.452 2.646 2.452 0 4.904-3.424 3.174-3.424 6.922 0 10.096 2.646 2.452 2.646 2.452 0 4.904-10.622 9.844 8.274 18.246 43.354 19.277 39.756 1.169 66.269-8.234 54.354-19.277-2.646-2.452-2.646-2.452 0-4.904 3.424-3.174 3.424-6.922 0-10.096-2.646-2.452-2.646-2.452 0-4.904 7.286-6.753 0.188-13.022-19.854-17.534-4.986-1.122-43.754-2.266-48.5-1.431m8 2.022c-23.318 2.008-39.421 7.528-37.391 12.818 2.912 7.589 34.563 12.876 63.186 10.553 18.387-1.492 17.501-2.268 17.038 14.93-0.333 12.406-0.333 12.406 2.281 12.766 4.128 0.568 5.509-1.894 4.073-7.264-3.019-11.285 0.035-22.91 7.178-27.325 14.237-8.799-22.116-19.426-56.365-16.478m4.166 3.235c-4.537 3.49-2.712 7.6 3.536 7.961 8.094 0.467 15.421-4.538 12.245-8.365-1.804-2.174-12.796-1.893-15.781 0.404m0.489 0.989c-2.973 3.285-2.081 4.863 3.081 5.445 6.575 0.741 12.884-2.496 11.564-5.933-0.842-2.195-12.571-1.804-14.645 0.488m168.66 5.793c-0.682 1.776 0.244 7.137 4.12 23.878 3.876 16.742 2.903 34.689-2.803 51.704-1.269 3.783-2.043 7.028-1.72 7.21 2.193 1.236 9.849 1.48 11.37 0.363 1.779-1.306 2.961-80.957 1.243-83.737-1.108-1.792-11.489-1.297-12.21 0.582m-33.815 11.585c-19.491 6.813-18.968 32.317 0.815 39.737 9.253 3.471 20.348-2.257 24.271-12.531 6.277-16.436-8.877-32.872-25.086-27.206m-174.76 2.154c-9.644 8.938 25.597 17.636 59.66 14.725 6.988-0.597 13.098-1.086 13.579-1.086 3.433 0 5.356-7.838 2.767-11.279-1.103-1.466-2.132-1.534-8.75-0.585-10.612 1.523-42.57 0.482-51.5-1.677-11.936-2.886-12.742-2.891-15.756-0.098m154.34 15.038c-3.347 6.8-3.542 16.58-0.394 19.736 2.545 2.55 6.083 0.99 4.64-2.045-0.416-0.875-0.999-6.315-1.295-12.09-0.54-10.5-0.54-10.5-2.951-5.601m-154.34-0.038c-10.997 10.192 53.097 21.459 74.488 13.094 5.019-1.962 1.36-12.422-4.093-11.701-11.367 1.503-46.036 0.737-54.139-1.196-12.55-2.995-13.228-3.003-16.256-0.197m158.17 27.278c-3.956 8.565-12.953 30.559-14.343 35.065-1.965 6.372 10.341 8.983 15.539 3.296 4.558-4.987 15.887-4.833 15.887 0.216 0 4.823 4.224-3.699 11.417-23.035 5.874-15.79 5.94-15.114-1.411-14.448-7.34 0.666-13.576-1.446-19.154-6.486-3.841-3.47-3.841-3.47-7.935 5.392m-174.35-3.752c-2.364 3.825 121.2 6.036 125.77 2.25 3.506-2.911-0.976-3.137-62.336-3.137-35.486 0-63.121 0.386-63.43 0.887m52.775 10.657c-2.088 5.441 1.131 10.789 7.834 13.015 7.848 2.607 13.713-0.906 6.526-3.909-1.812-0.757-5.131-3.463-7.376-6.013-4.297-4.882-6.007-5.639-6.984-3.093m41.965 11.206c-0.344 0.963-1.455 3.904-2.468 6.537s-1.842 4.933-1.842 5.111c0 0.934 53.882 20.258 57.954 20.785 7.202 0.931 7.999-17.582 0.843-19.573-2.913-0.811-15.796-4.43-28.628-8.042-26.335-7.414-25.017-7.168-25.859-4.818m83.047 24.242c-7.746 3.125-6.412 14.45 1.949 16.549 4.837 1.214 11.535-4.6851 11.535-10.072 0-4.741-8.0775-8.6589-13.484-6.4769m46.643 2.713c-29.527 6.136-41.351 24.51-31.474 48.913 4.341 10.726 38.737 15.345 47.921 6.436 4.164-4.039 5.727-38.01 1.895-41.182-2.9987-3.001-5.294-8.84-5.32-12.563-0.03-4.323 0.029-4.315-13.022-1.604m-68.385 1.76c-3.306 5.045-0.879 10.535 4.657 10.535 5.438 0 7.188-5.867 3.041-10.195-3.311-3.456-5.59-3.557-7.698-0.34m-87.149 13.935c-15.38 6.7-18.715 42.1-3.966 42.1 8 0 8 0 8.562-6.528 1.439-16.716 12.636-21.648 31.111-13.702 11.149 4.794 31.871 4.871 44.529 0.164 7.961-2.961 17.582-15.402 14.048-18.167-4.882-3.82-86.691-7.175-94.284-3.867m98.907 12.054c-14.005 14.817-14.49 15.058-33.373 16.527-7.425 0.578-15.224 1.578-17.33 2.222-3.522 1.076-4.288 0.924-9.5-1.882-15.708-8.457-19.726-8.176-18.839 1.317 1.238 13.265 1.587 13.362 47.897 13.362 49.026 0 46.303 1.624 46.939-28 0.443-20.605 0.35-20.626-15.794-3.546" fill="#38373d"/>
  <path d="m77.052 69.944c-2.112 5.478 1.1191 13.284 6.2931 18.05 5.084 4.681 5.1759-5.7868-1.0339-16.587-2.391-4.5-3.6025-5.6819-4.6885-2.8669m-1.748 38.21c-0.069 0.138-0.181 0.663-0.25 1.167s-0.49048 1.2282-0.875 1.666c-3.9691 4.5187 5.2301 6.1585 11.878 3.7352 1.537-0.795 2.4287-0.28031 2.9567 0.0457 0.554 0.342 1.4127-0.60814 1.0327-1.5991-0.23718-0.7223-0.2953-0.91438 0.7687-0.30638 1.15 0.656 1.5186-0.79582 0.50659-1.8858-0.687-0.741 0.1367 0.28635-0.90524-1.3142-0.2575-0.39556 0.56462 0.0893 1.2264 0.54283 0.688 0.396 0.81522-1.3369 0.44222-1.7519-0.601-0.67001-16.471-0.92229-16.781-0.29929" fill="#c3742f"/>
  <path d="m0 141c0 141 0 141 137.25 140.75 67.676-0.12524 125.36 1.379 131.69-6.2744 8.4525-10.227 4.9736-63.48 5.1019-134.83 0.254-140.75 0.96816-140.65-136.54-140.65-137.5 0-137.5 0-137.5 141m169.25-135.17c-22.299 9.7085-48.573 27.857-47.139 34.782 0.8634 8.729-4.5263 19.731-3.1887 26.526 1.4565 7.664 2.1801 9.2839 0.39744 10.828-1.2491 1.1636 9.1322 25.484 11.735 24.658 2.5374-0.25802 12.488 21.185 19.946 30.63 2.299 2.833 4.9046 5.7925 6.9 8.959 3.3462 6.1787 5.6069 7.7625 12.16 5.5158 3.224-1.538 2.8503 0.50621 2.8348 24.932-0.0157 24.758 2.9526 26.854-6.0355 23.464-5.344-1.616-24.851-7.2886-36.793-10.241-37.176-9.0906-33.326-10.538-11.798-9.8856 11.246 0.34076 17.706-0.43375 17.941-0.93084 1.4976-1.1301 3.6937-1.1014 5.859-1.1881 0.46738-0.0187 2.7697 1.2305 8.3387-5.6665 0.55266-0.62282 1.0221-1.197 1.4123-1.6684 2.5728-3.108 1.2415-3.1336-11.08-3.7768-4.2733-0.22305-10.236-0.13124-17.655-0.17125-6.6246-0.0359-26.851-0.12128-31.686-0.11466-1.8481 3e-3 -6.7992 0.01-6.7992 0.01l0.03552-1.679s0.55343-0.0188 0.91099-0.0194c1.3799-2e-3 7.886-0.20396 8.488-0.25048 30.682-2.366 45.624-8.848 38.03-18.415-3.3937-3.2084-4.016-2.6749 0.33057-6.7506 1.449-1.722 1.4899-3.6878 1.4838-4.4288-7e-3 -0.90649-0.7637-2.5031-2.2127-4.2251-3.5632-3.0808-2.6896-2.7171-0.0546-5.4671 9.3944-10.18-10.985-18.037-45.184-18.684-40.506-1.048-63.421 8.689-52.505 19.156 2.8833 2.5245 1.8522 2.5526-0.83481 5.3576-3.392 3.54-1.8 6.7154 0.02677 8.928 3.4328 3.2021 3.3687 2.8739-0.10722 6.0439-8.1515 8.5083 5.9555 15.893 33.541 18.113 1.6053 0.1292 13.898 0.51237 15.593 0.64245 0.26816 0.0206 2.1343-0.0234 2.494 3e-3l-0.03497 1.6759s-1.4282-0.0196-2.0415-5e-3c-1.9597 0.0474-13.85 0.0676-14.643 0.0435-5.2236-0.15866-16.115 0.17285-28.635 0.19183-25.998 0.039-37.076 0.58593-38.185 1.5059-0.20224 0.8266 3.5641 1.1732 7.6825 2.0122 4.6869 0.95479 4.735 1.0945 5.3744 2.921 0.29022 4.4262 4.0477 3.798 9.1566 4.9075 3.4418 0.74746 7.7842 1.9743 12.974 1.9264 6.1987-0.0573 7.7363-0.55572 9.2993 2.0013 11.508 18.82 14.413 20.293 23.48 26.337 12.115 5.436 22.663 6.0116 33.608 2.2206 4.525-1.567 5.9379-1.3941 19.413 3.5649 7.412 2.728 18.978 7.2918 27.228 10.226 17.52 6.232 23.734 8.2108 15.85 7.6418-71.198-3.4783-82.508-3.4721-91.82 12.417-4.7352 9.0201-5.4335 30.573 0.10049 35.397 4.6418 2.0293 178.43 2.1586 187.55 0.9024 9.8996-7.5863 8.7907 4.1917 8.9817-78.282 0.215-93.293 1.8925-89.461-22.313-90.192-18.083-0.54614-21.045 1.4395-13.726-7.3657 9.335-14.066 9.7498-13.508 9.7498-21.236 0-5.799-1.1598-8.3224-3.5368-13.47-3.714-8.046-2.1595-8.1186 9.8085-13.496 6.891-3.095 9.1334-4.6838 9.4073-5.9209-0.0237-3.1909-1.0877-2.5507-11.573 1.6563-13.372 4.7902-14.131 7.4832-18.832-5.337-2.75-5.034-5.9743-10.176-7.4863-12.08-3.8391-4.4361-3.0758-6.4419 6.6512-14.062 10.533-8.386 10.639-8.6428 9.2183-10.646 0.0586 0.22238-0.1374-1.5494-8.8662 4.7703-14.297 10.16-15.525 10.844-24.303 2.8886-10.645-9.6469-19.527-12.528-30.11-9.6164m-96.444 64.222c-2.367 6.168 2.666 19.329 7.764 20.3 2.816 0.536 1.736-7.856-1.971-15.316-3.083-6.203-4.769-7.654-5.793-4.984m-58.053 98.347c-0.78169 1.012 2.146 2.948 36.43 3.438 55.934 2.0675 96.078 1.3557 89.862-2.8411 0.29416-2.8539-126.26-2.3704-126.26-0.67245m52.336 12.028c-2.2504 7.663 8.2738 14.462 16.075 12.504 3.135-0.787 2.597-3.3022-1.45-4.7025-1.305-0.327-6.3465-4.9478-8.5265-7.4248-4.145-4.709-5.3959-3.2836-5.9422-1.0508" fill="#d8d3d0"/>
 </g>
 <path d="m189.86 163.4c-1.02-0.93042-2.5651-3.7959-2.5583-8.241 7e-3 -4.7934 1.7176-10.722 3.834-13.952 0.53848-0.82182 0.96694-1.3549 1.1969-0.73286 0.13727 0.37132 0.40622 2.0488 0.54244 4.544 0.32886 6.0236 0.63876 13.242 1.601 16.205 0.70239 2.163-0.2541 2.4919-0.75725 2.887-1.1592 0.91035-3.2458-0.15095-3.8588-0.71014z" fill="#f59e3d" stroke-width=".36293"/>
</svg>
